<?xml version="1.0" encoding="UTF-8" standalone="no"?>
<!DOCTYPE svg PUBLIC "-//W3C//DTD SVG 1.1//EN"
 "http://www.w3.org/Graphics/SVG/1.1/DTD/svg11.dtd">
<!-- Generated by graphviz version 2.43.0 (0)
 -->
<!-- Title: %3 Pages: 1 -->
<svg width="2713pt" height="368pt"
 viewBox="0.00 0.00 2712.93 367.99" xmlns="http://www.w3.org/2000/svg" xmlns:xlink="http://www.w3.org/1999/xlink">
<g id="graph0" class="graph" transform="scale(1 1) rotate(0) translate(4 363.99)">
<title>%3</title>
<polygon fill="white" stroke="transparent" points="-4,4 -4,-363.99 2708.93,-363.99 2708.93,4 -4,4"/>
<!-- &#45;1 -->
<g id="node1" class="node">
<title>&#45;1</title>
<polygon fill="lightgray" stroke="black" points="1616.88,-359.99 1590.88,-359.99 1590.88,-341.99 1616.88,-341.99 1616.88,-359.99"/>
<text text-anchor="middle" x="1603.88" y="-348.79" font-family="Times,serif" font-size="9.00">&#45;1</text>
</g>
<!-- 205 -->
<g id="node13" class="node">
<title>205</title>
<ellipse fill="white" stroke="black" cx="1049.88" cy="-93.28" rx="25" ry="25"/>
<text text-anchor="middle" x="1049.88" y="-91.08" font-family="Times,serif" font-size="9.00">205</text>
</g>
<!-- &#45;1&#45;&gt;205 -->
<g id="edge1" class="edge">
<title>&#45;1&#45;&gt;205</title>
<path fill="none" stroke="green" stroke-width="0.25" d="M1590.76,-350.48C1547.87,-351.6 1408.82,-351.28 1306.88,-305.99 1206.71,-261.49 1113.94,-166.76 1072.56,-120.62"/>
<polygon fill="green" stroke="green" stroke-width="0.25" points="1074.92,-118.02 1065.67,-112.86 1069.69,-122.66 1074.92,-118.02"/>
</g>
<!-- 206 -->
<g id="node14" class="node">
<title>206</title>
<ellipse fill="white" stroke="black" cx="1633.88" cy="-93.28" rx="25" ry="25"/>
<text text-anchor="middle" x="1633.88" y="-91.08" font-family="Times,serif" font-size="9.00">206</text>
</g>
<!-- &#45;1&#45;&gt;206 -->
<g id="edge2" class="edge">
<title>&#45;1&#45;&gt;206</title>
<path fill="none" stroke="red" stroke-width="0.34" d="M1617.2,-350.07C1672.86,-349.59 1887.54,-339.31 1964.88,-212.01 1978.26,-189.98 1981.99,-173.3 1964.88,-154.02 1920.17,-103.64 1726.08,-143.91 1663.88,-118.02 1662.68,-117.52 1661.48,-116.96 1660.29,-116.34"/>
<polygon fill="red" stroke="red" stroke-width="0.34" points="1661.91,-113.22 1651.58,-110.84 1658.17,-119.14 1661.91,-113.22"/>
</g>
<!-- 207 -->
<g id="node15" class="node">
<title>207</title>
<ellipse fill="white" stroke="black" cx="1337.88" cy="-93.28" rx="25" ry="25"/>
<text text-anchor="middle" x="1337.88" y="-91.08" font-family="Times,serif" font-size="9.00">207</text>
</g>
<!-- &#45;1&#45;&gt;207 -->
<g id="edge3" class="edge">
<title>&#45;1&#45;&gt;207</title>
<path fill="none" stroke="red" stroke-width="0.17" d="M1602.02,-341.78C1594.77,-311.7 1565.46,-206.47 1499.88,-154.02 1452.39,-116.05 1422.16,-145.45 1367.88,-118.02 1366.72,-117.43 1365.55,-116.79 1364.39,-116.12"/>
<polygon fill="red" stroke="red" stroke-width="0.17" points="1366.06,-113.02 1355.81,-110.35 1362.16,-118.83 1366.06,-113.02"/>
</g>
<!-- 210 -->
<g id="node16" class="node">
<title>210</title>
<ellipse fill="white" stroke="black" cx="2598.88" cy="-183.02" rx="25" ry="25"/>
<text text-anchor="middle" x="2598.88" y="-180.82" font-family="Times,serif" font-size="9.00">210</text>
</g>
<!-- &#45;1&#45;&gt;210 -->
<g id="edge4" class="edge">
<title>&#45;1&#45;&gt;210</title>
<path fill="none" stroke="green" stroke-width="0.23" d="M1617.16,-349.53C1734.97,-345.46 2596.91,-315.37 2605.88,-305.99 2628.48,-282.38 2621.34,-243.01 2612.07,-215.4"/>
<polygon fill="green" stroke="green" stroke-width="0.23" points="2615.3,-214.03 2608.61,-205.81 2608.72,-216.4 2615.3,-214.03"/>
</g>
<!-- 211 -->
<g id="node17" class="node">
<title>211</title>
<ellipse fill="white" stroke="black" cx="1155.88" cy="-93.28" rx="25" ry="25"/>
<text text-anchor="middle" x="1155.88" y="-91.08" font-family="Times,serif" font-size="9.00">211</text>
</g>
<!-- &#45;1&#45;&gt;211 -->
<g id="edge5" class="edge">
<title>&#45;1&#45;&gt;211</title>
<path fill="none" stroke="green" stroke-width="0.26" d="M1590.82,-349.56C1556.63,-347.97 1462.41,-340.52 1393.88,-305.99 1300.9,-259.13 1215.95,-166.68 1177.51,-121.05"/>
<polygon fill="green" stroke="green" stroke-width="0.26" points="1179.98,-118.53 1170.89,-113.09 1174.6,-123.01 1179.98,-118.53"/>
</g>
<!-- 212 -->
<g id="node18" class="node">
<title>212</title>
<ellipse fill="white" stroke="black" cx="290.88" cy="-277" rx="25" ry="25"/>
<text text-anchor="middle" x="290.88" y="-274.8" font-family="Times,serif" font-size="9.00">212</text>
</g>
<!-- &#45;1&#45;&gt;212 -->
<g id="edge6" class="edge">
<title>&#45;1&#45;&gt;212</title>
<path fill="none" stroke="red" stroke-width="0.64" d="M1590.46,-349.25C1466.48,-342.46 521.05,-290.62 326.01,-279.92"/>
<polygon fill="red" stroke="red" stroke-width="0.64" points="325.94,-276.42 315.77,-279.36 325.56,-283.41 325.94,-276.42"/>
</g>
<!-- 213 -->
<g id="node19" class="node">
<title>213</title>
<ellipse fill="white" stroke="black" cx="100.88" cy="-183.02" rx="25" ry="25"/>
<text text-anchor="middle" x="100.88" y="-180.82" font-family="Times,serif" font-size="9.00">213</text>
</g>
<!-- &#45;1&#45;&gt;213 -->
<g id="edge7" class="edge">
<title>&#45;1&#45;&gt;213</title>
<path fill="none" stroke="red" stroke-width="0.26" d="M1590.53,-349.71C1450.4,-346.79 253.61,-321.42 220.88,-305.99 189.84,-291.35 193.83,-272.59 169.88,-248.01 156.2,-233.95 140.17,-219 127.01,-207.09"/>
<polygon fill="red" stroke="red" stroke-width="0.26" points="129.01,-204.18 119.23,-200.1 124.33,-209.39 129.01,-204.18"/>
</g>
<!-- 214 -->
<g id="node20" class="node">
<title>214</title>
<ellipse fill="white" stroke="black" cx="1920.88" cy="-93.28" rx="25" ry="25"/>
<text text-anchor="middle" x="1920.88" y="-91.08" font-family="Times,serif" font-size="9.00">214</text>
</g>
<!-- &#45;1&#45;&gt;214 -->
<g id="edge8" class="edge">
<title>&#45;1&#45;&gt;214</title>
<path fill="none" stroke="red" stroke-width="0.18" d="M1616.89,-349.61C1692.6,-347.33 2074.82,-334.43 2117.88,-305.99 2177.22,-266.81 2213.86,-208.26 2167.88,-154.02 2104.66,-79.45 2040.27,-157.62 1950.88,-118.02 1949.69,-117.49 1948.5,-116.91 1947.32,-116.27"/>
<polygon fill="red" stroke="red" stroke-width="0.18" points="1948.95,-113.16 1938.65,-110.69 1945.16,-119.04 1948.95,-113.16"/>
</g>
<!-- 215 -->
<g id="node21" class="node">
<title>215</title>
<ellipse fill="white" stroke="black" cx="1853.88" cy="-93.28" rx="25" ry="25"/>
<text text-anchor="middle" x="1853.88" y="-91.08" font-family="Times,serif" font-size="9.00">215</text>
</g>
<!-- &#45;1&#45;&gt;215 -->
<g id="edge9" class="edge">
<title>&#45;1&#45;&gt;215</title>
<path fill="none" stroke="green" stroke-width="0.26" d="M1617.01,-350.11C1684.41,-350.54 1991.72,-350.03 2073.88,-305.99 2121.23,-280.61 2131.97,-262.65 2149.88,-212.01 2158.48,-187.71 2166.83,-173.44 2149.88,-154.02 2111.1,-109.57 1941.67,-139.9 1886.88,-118.02 1885.02,-117.28 1883.15,-116.4 1881.32,-115.44"/>
<polygon fill="green" stroke="green" stroke-width="0.26" points="1882.85,-112.27 1872.5,-110.04 1879.2,-118.24 1882.85,-112.27"/>
</g>
<!-- 216 -->
<g id="node22" class="node">
<title>216</title>
<ellipse fill="white" stroke="black" cx="996.88" cy="-183.02" rx="25" ry="25"/>
<text text-anchor="middle" x="996.88" y="-180.82" font-family="Times,serif" font-size="9.00">216</text>
</g>
<!-- &#45;1&#45;&gt;216 -->
<g id="edge10" class="edge">
<title>&#45;1&#45;&gt;216</title>
<path fill="none" stroke="green" stroke-width="0.58" d="M1590.71,-350.41C1539.6,-351.67 1349.93,-352.74 1203.88,-305.99 1133.53,-283.47 1061.44,-233.73 1023.7,-205.21"/>
<polygon fill="green" stroke="green" stroke-width="0.58" points="1025.81,-202.42 1015.74,-199.13 1021.56,-207.98 1025.81,-202.42"/>
</g>
<!-- 217 -->
<g id="node23" class="node">
<title>217</title>
<ellipse fill="white" stroke="black" cx="905.88" cy="-93.28" rx="25" ry="25"/>
<text text-anchor="middle" x="905.88" y="-91.08" font-family="Times,serif" font-size="9.00">217</text>
</g>
<!-- &#45;1&#45;&gt;217 -->
<g id="edge11" class="edge">
<title>&#45;1&#45;&gt;217</title>
<path fill="none" stroke="green" stroke-width="0.16" d="M1590.7,-349.72C1507.42,-347.91 1056.15,-336.75 1003.88,-305.99 977.33,-290.36 991.73,-264.77 965.88,-248.01 881.65,-193.38 807.97,-288.44 742.88,-212.01 726.18,-192.39 727.28,-174.53 742.88,-154.02 779.18,-106.31 818.82,-143.94 872.88,-118.02 874.7,-117.15 876.52,-116.18 878.32,-115.15"/>
<polygon fill="green" stroke="green" stroke-width="0.16" points="880.52,-117.89 887.06,-109.55 876.75,-112 880.52,-117.89"/>
</g>
<!-- 218 -->
<g id="node24" class="node">
<title>218</title>
<ellipse fill="white" stroke="black" cx="838.88" cy="-93.28" rx="25" ry="25"/>
<text text-anchor="middle" x="838.88" y="-91.08" font-family="Times,serif" font-size="9.00">218</text>
</g>
<!-- &#45;1&#45;&gt;218 -->
<g id="edge12" class="edge">
<title>&#45;1&#45;&gt;218</title>
<path fill="none" stroke="green" stroke-width="0.42" d="M1590.87,-349.8C1511.32,-348.52 1089.75,-340.23 965.88,-305.99 911.09,-290.84 904.77,-268.85 851.88,-248.01 798.1,-226.81 761.65,-258.2 726.88,-212.01 711.39,-191.42 713.63,-176.12 726.88,-154.02 743.67,-126.04 778.51,-110.44 804.9,-102.26"/>
<polygon fill="green" stroke="green" stroke-width="0.42" points="805.91,-105.61 814.55,-99.48 803.97,-98.88 805.91,-105.61"/>
</g>
<!-- 219 -->
<g id="node25" class="node">
<title>219</title>
<ellipse fill="white" stroke="black" cx="2216.88" cy="-93.28" rx="25" ry="25"/>
<text text-anchor="middle" x="2216.88" y="-91.08" font-family="Times,serif" font-size="9.00">219</text>
</g>
<!-- &#45;1&#45;&gt;219 -->
<g id="edge13" class="edge">
<title>&#45;1&#45;&gt;219</title>
<path fill="none" stroke="red" stroke-width="0.1" d="M1617,-349.64C1721.82,-346.78 2420.24,-327 2458.88,-305.99 2523.89,-270.65 2575.76,-209.58 2526.88,-154.02 2485.45,-106.92 2304.7,-142.38 2246.88,-118.02 2245.68,-117.52 2244.48,-116.95 2243.3,-116.33"/>
<polygon fill="red" stroke="red" stroke-width="0.1" points="2244.91,-113.21 2234.59,-110.81 2241.17,-119.12 2244.91,-113.21"/>
</g>
<!-- 220 -->
<g id="node26" class="node">
<title>220</title>
<ellipse fill="white" stroke="black" cx="890.88" cy="-183.02" rx="25" ry="25"/>
<text text-anchor="middle" x="890.88" y="-180.82" font-family="Times,serif" font-size="9.00">220</text>
</g>
<!-- &#45;1&#45;&gt;220 -->
<g id="edge14" class="edge">
<title>&#45;1&#45;&gt;220</title>
<path fill="none" stroke="red" stroke-width="0.38" d="M1590.53,-349.82C1519.01,-348.79 1180.91,-342.05 1083.88,-305.99 1042.72,-290.69 1040.82,-271.75 1003.88,-248.01 976.71,-230.54 944.56,-212.59 921.52,-200.16"/>
<polygon fill="red" stroke="red" stroke-width="0.38" points="923.01,-196.99 912.55,-195.35 919.71,-203.16 923.01,-196.99"/>
</g>
<!-- 221 -->
<g id="node27" class="node">
<title>221</title>
<ellipse fill="white" stroke="black" cx="1824.88" cy="-183.02" rx="25" ry="25"/>
<text text-anchor="middle" x="1824.88" y="-180.82" font-family="Times,serif" font-size="9.00">221</text>
</g>
<!-- &#45;1&#45;&gt;221 -->
<g id="edge15" class="edge">
<title>&#45;1&#45;&gt;221</title>
<path fill="none" stroke="green" stroke-width="0.4" d="M1614.54,-341.98C1647.4,-317.31 1747.89,-241.84 1797.12,-204.87"/>
<polygon fill="green" stroke="green" stroke-width="0.4" points="1799.51,-207.45 1805.4,-198.64 1795.31,-201.85 1799.51,-207.45"/>
</g>
<!-- 222 -->
<g id="node28" class="node">
<title>222</title>
<ellipse fill="white" stroke="black" cx="1930.88" cy="-183.02" rx="25" ry="25"/>
<text text-anchor="middle" x="1930.88" y="-180.82" font-family="Times,serif" font-size="9.00">222</text>
</g>
<!-- &#45;1&#45;&gt;222 -->
<g id="edge16" class="edge">
<title>&#45;1&#45;&gt;222</title>
<path fill="none" stroke="red" stroke-width="0.3" d="M1617.02,-345.1C1637.52,-337.36 1678.27,-321.57 1711.88,-305.99 1793.76,-268.04 1815.03,-259.32 1891.88,-212.01 1895.56,-209.75 1899.34,-207.26 1903.03,-204.72"/>
<polygon fill="red" stroke="red" stroke-width="0.3" points="1905.26,-207.43 1911.41,-198.81 1901.22,-201.71 1905.26,-207.43"/>
</g>
<!-- 223 -->
<g id="node29" class="node">
<title>223</title>
<ellipse fill="white" stroke="black" cx="2302.88" cy="-183.02" rx="25" ry="25"/>
<text text-anchor="middle" x="2302.88" y="-180.82" font-family="Times,serif" font-size="9.00">223</text>
</g>
<!-- &#45;1&#45;&gt;223 -->
<g id="edge17" class="edge">
<title>&#45;1&#45;&gt;223</title>
<path fill="none" stroke="red" stroke-width="0.39" stroke-dasharray="1,5" d="M1617.01,-349.67C1710.89,-347.28 2277.39,-331.86 2301.88,-305.99 2323.96,-282.67 2320.23,-244.19 2313.53,-216.68"/>
<polygon fill="red" stroke="red" stroke-width="0.39" points="2316.83,-215.48 2310.86,-206.73 2310.07,-217.3 2316.83,-215.48"/>
</g>
<!-- 224 -->
<g id="node30" class="node">
<title>224</title>
<ellipse fill="white" stroke="black" cx="419.88" cy="-93.28" rx="25" ry="25"/>
<text text-anchor="middle" x="419.88" y="-91.08" font-family="Times,serif" font-size="9.00">224</text>
</g>
<!-- &#45;1&#45;&gt;224 -->
<g id="edge18" class="edge">
<title>&#45;1&#45;&gt;224</title>
<path fill="none" stroke="green" stroke-width="0.13" d="M1590.59,-349.55C1464.73,-345.22 485.81,-308.58 405.88,-212.01 385.98,-187.96 394.57,-151.1 404.88,-125.04"/>
<polygon fill="green" stroke="green" stroke-width="0.13" points="408.18,-126.2 408.86,-115.63 401.74,-123.47 408.18,-126.2"/>
</g>
<!-- 7128 -->
<g id="node31" class="node">
<title>7128</title>
<ellipse fill="white" stroke="black" cx="2420.88" cy="-277" rx="28.98" ry="28.98"/>
<text text-anchor="middle" x="2420.88" y="-274.8" font-family="Times,serif" font-size="9.00">7128</text>
</g>
<!-- &#45;1&#45;&gt;7128 -->
<g id="edge180" class="edge">
<title>&#45;1&#45;&gt;7128</title>
<path fill="none" stroke="green" stroke-width="0.33" d="M1617.14,-349.65C1713.33,-347.11 2302.75,-330.63 2377.88,-305.99 2381.88,-304.68 2385.87,-302.9 2389.71,-300.86"/>
<polygon fill="green" stroke="green" stroke-width="0.33" points="2391.52,-303.86 2398.36,-295.77 2387.97,-297.83 2391.52,-303.86"/>
</g>
<!-- &#45;2 -->
<g id="node2" class="node">
<title>&#45;2</title>
<polygon fill="lightgray" stroke="black" points="736.88,-359.99 710.88,-359.99 710.88,-341.99 736.88,-341.99 736.88,-359.99"/>
<text text-anchor="middle" x="723.88" y="-348.79" font-family="Times,serif" font-size="9.00">&#45;2</text>
</g>
<!-- &#45;2&#45;&gt;205 -->
<g id="edge19" class="edge">
<title>&#45;2&#45;&gt;205</title>
<path fill="none" stroke="green" stroke-width="0.33" d="M710.49,-350.05C683.46,-349.35 622.64,-343.48 595.88,-305.99 580.91,-285.01 584.89,-271.32 595.88,-248.01 665.6,-100.18 779.2,-147.92 939.88,-118.02 965.47,-113.26 994.21,-107.03 1015.9,-102.14"/>
<polygon fill="green" stroke="green" stroke-width="0.33" points="1016.95,-105.49 1025.93,-99.86 1015.4,-98.66 1016.95,-105.49"/>
</g>
<!-- &#45;2&#45;&gt;206 -->
<g id="edge20" class="edge">
<title>&#45;2&#45;&gt;206</title>
<path fill="none" stroke="green" stroke-width="0.84" d="M737.17,-349.57C834.81,-346.42 1438.44,-326.16 1470.88,-305.99 1496.07,-290.34 1483.86,-269.88 1503.88,-248.01 1522.86,-227.27 1536.21,-232.09 1555.88,-212.01 1581.71,-185.65 1604.13,-149.59 1618.22,-124.34"/>
<polygon fill="green" stroke="green" stroke-width="0.84" points="1621.29,-126.02 1623.03,-115.57 1615.15,-122.66 1621.29,-126.02"/>
</g>
<!-- &#45;2&#45;&gt;207 -->
<g id="edge21" class="edge">
<title>&#45;2&#45;&gt;207</title>
<path fill="none" stroke="green" stroke-width="0.33" d="M737.15,-344.89C799.69,-320.8 1071.08,-215.4 1288.88,-118.02 1294.77,-115.39 1301.01,-112.47 1306.98,-109.61"/>
<polygon fill="green" stroke="green" stroke-width="0.33" points="1308.59,-112.72 1316.07,-105.21 1305.54,-106.42 1308.59,-112.72"/>
</g>
<!-- &#45;2&#45;&gt;210 -->
<g id="edge22" class="edge">
<title>&#45;2&#45;&gt;210</title>
<path fill="none" stroke="green" stroke-width="0.18" d="M737,-349.59C867.58,-345.6 1930.84,-312.95 1996.88,-305.99 2115.84,-293.45 2411.7,-244.27 2526.88,-212.01 2540.33,-208.24 2554.76,-202.9 2567.14,-197.9"/>
<polygon fill="green" stroke="green" stroke-width="0.18" points="2568.67,-201.05 2576.57,-193.99 2565.99,-194.59 2568.67,-201.05"/>
</g>
<!-- &#45;2&#45;&gt;211 -->
<g id="edge23" class="edge">
<title>&#45;2&#45;&gt;211</title>
<path fill="none" stroke="green" stroke-width="0.47" stroke-dasharray="1,5" d="M716.98,-341.89C710.35,-333.53 700.78,-319.79 696.88,-305.99 677.71,-238.08 685.06,-194.47 742.88,-154.02 805.32,-110.35 1009.39,-134.05 1083.88,-118.02 1096.95,-115.21 1110.98,-110.89 1123.16,-106.71"/>
<polygon fill="green" stroke="green" stroke-width="0.47" points="1124.63,-109.9 1132.88,-103.26 1122.29,-103.3 1124.63,-109.9"/>
</g>
<!-- &#45;2&#45;&gt;212 -->
<g id="edge24" class="edge">
<title>&#45;2&#45;&gt;212</title>
<path fill="none" stroke="red" stroke-width="0.2" d="M710.73,-349.41C650.64,-346.65 402,-333.7 329.88,-305.99 325.66,-304.37 321.47,-302.17 317.49,-299.72"/>
<polygon fill="red" stroke="red" stroke-width="0.2" points="319.42,-296.8 309.18,-294.06 315.48,-302.59 319.42,-296.8"/>
</g>
<!-- &#45;2&#45;&gt;213 -->
<g id="edge25" class="edge">
<title>&#45;2&#45;&gt;213</title>
<path fill="none" stroke="red" stroke-width="0.62" d="M710.62,-349.94C626.88,-349.52 173.44,-345.41 127.88,-305.99 103.16,-284.6 98.19,-246.11 98.28,-218.07"/>
<polygon fill="red" stroke="red" stroke-width="0.62" points="101.79,-217.98 98.54,-207.89 94.79,-217.8 101.79,-217.98"/>
</g>
<!-- &#45;2&#45;&gt;214 -->
<g id="edge26" class="edge">
<title>&#45;2&#45;&gt;214</title>
<path fill="none" stroke="red" stroke-width="0.23" d="M737.21,-349.55C853.66,-345.71 1695.24,-317.63 1746.88,-305.99 1811.38,-291.45 1822.31,-272.1 1883.88,-248.01 1927.87,-230.8 1956.72,-250.65 1983.88,-212.01 1998.7,-190.92 1994.06,-177.7 1983.88,-154.02 1979.9,-144.77 1962.9,-128.88 1947.56,-115.82"/>
<polygon fill="red" stroke="red" stroke-width="0.23" points="1949.68,-113.03 1939.77,-109.29 1945.19,-118.4 1949.68,-113.03"/>
</g>
<!-- &#45;2&#45;&gt;215 -->
<g id="edge27" class="edge">
<title>&#45;2&#45;&gt;215</title>
<path fill="none" stroke="green" stroke-width="0.34" d="M737.21,-349.52C842.25,-345.79 1535.27,-320.77 1626.88,-305.99 1636.5,-304.44 1958.99,-219.77 1964.88,-212.01 1980.47,-191.49 1978.77,-175.73 1964.88,-154.02 1944.31,-121.86 1919.86,-137.26 1886.88,-118.02 1885.15,-117.01 1883.39,-115.93 1881.63,-114.81"/>
<polygon fill="green" stroke="green" stroke-width="0.34" points="1883.26,-111.68 1873.01,-108.98 1879.34,-117.48 1883.26,-111.68"/>
</g>
<!-- &#45;2&#45;&gt;216 -->
<g id="edge28" class="edge">
<title>&#45;2&#45;&gt;216</title>
<path fill="none" stroke="red" stroke-width="0.17" d="M723.12,-341.71C721.81,-322.3 721.51,-273.59 747.88,-248.01 805.51,-192.11 847.86,-234.63 924.88,-212.01 938.29,-208.07 952.7,-202.7 965.09,-197.72"/>
<polygon fill="red" stroke="red" stroke-width="0.17" points="966.61,-200.88 974.53,-193.84 963.95,-194.41 966.61,-200.88"/>
</g>
<!-- &#45;2&#45;&gt;217 -->
<g id="edge29" class="edge">
<title>&#45;2&#45;&gt;217</title>
<path fill="none" stroke="green" stroke-width="0.37" stroke-dasharray="1,5" d="M710.6,-349.22C669.25,-346.54 544.12,-336.01 519.88,-305.99 503.7,-285.94 509.71,-271.69 519.88,-248.01 543.83,-192.26 564.26,-180.42 618.88,-154.02 721.54,-104.42 767.1,-160.56 872.88,-118.02 874.75,-117.27 876.61,-116.4 878.44,-115.43"/>
<polygon fill="green" stroke="green" stroke-width="0.37" points="880.57,-118.23 887.26,-110.02 876.91,-112.26 880.57,-118.23"/>
</g>
<!-- &#45;2&#45;&gt;218 -->
<g id="edge30" class="edge">
<title>&#45;2&#45;&gt;218</title>
<path fill="none" stroke="green" stroke-width="0.64" d="M710.57,-350.06C659.74,-350.04 478.98,-347.03 443.88,-305.99 399.99,-254.66 399.84,-205.23 443.88,-154.02 455.66,-140.34 709.6,-109.39 803.98,-98.31"/>
<polygon fill="green" stroke="green" stroke-width="0.64" points="804.63,-101.76 814.15,-97.12 803.82,-94.81 804.63,-101.76"/>
</g>
<!-- &#45;2&#45;&gt;220 -->
<g id="edge31" class="edge">
<title>&#45;2&#45;&gt;220</title>
<path fill="none" stroke="red" stroke-width="0.15" stroke-dasharray="1,5" d="M719.31,-341.92C709.47,-323.39 688.84,-277.12 709.88,-248.01 739.77,-206.66 770.87,-229.26 818.88,-212.01 832.03,-207.28 846.4,-201.77 858.82,-196.89"/>
<polygon fill="red" stroke="red" stroke-width="0.15" points="860.28,-200.08 868.3,-193.14 857.71,-193.57 860.28,-200.08"/>
</g>
<!-- &#45;2&#45;&gt;221 -->
<g id="edge32" class="edge">
<title>&#45;2&#45;&gt;221</title>
<path fill="none" stroke="red" stroke-width="0.11" d="M737.1,-349.58C836.92,-346.47 1469.27,-325.97 1503.88,-305.99 1530.57,-290.59 1515.92,-264.6 1541.88,-248.01 1634.26,-188.99 1684.27,-253.12 1785.88,-212.01 1790.08,-210.31 1794.26,-208.07 1798.23,-205.6"/>
<polygon fill="red" stroke="red" stroke-width="0.11" points="1800.24,-208.46 1806.52,-199.93 1796.29,-202.68 1800.24,-208.46"/>
</g>
<!-- &#45;2&#45;&gt;222 -->
<g id="edge33" class="edge">
<title>&#45;2&#45;&gt;222</title>
<path fill="none" stroke="green" stroke-width="0.31" d="M737.12,-349.52C835.84,-345.98 1455.46,-323.19 1536.88,-305.99 1608.03,-290.96 1620.12,-268.53 1689.88,-248.01 1763.56,-226.34 1785.3,-233.99 1858.88,-212.01 1872.27,-208.01 1886.68,-202.63 1899.07,-197.66"/>
<polygon fill="green" stroke="green" stroke-width="0.31" points="1900.58,-200.82 1908.51,-193.79 1897.93,-194.34 1900.58,-200.82"/>
</g>
<!-- &#45;2&#45;&gt;223 -->
<g id="edge34" class="edge">
<title>&#45;2&#45;&gt;223</title>
<path fill="none" stroke="green" stroke-width="0.35" d="M736.98,-349.59C860.92,-345.74 1824.33,-315.64 1883.88,-305.99 1886.36,-305.59 2170.77,-222.58 2269.55,-193.75"/>
<polygon fill="green" stroke="green" stroke-width="0.35" points="2270.7,-197.06 2279.32,-190.9 2268.74,-190.34 2270.7,-197.06"/>
</g>
<!-- &#45;2&#45;&gt;224 -->
<g id="edge35" class="edge">
<title>&#45;2&#45;&gt;224</title>
<path fill="none" stroke="red" stroke-width="0.28" d="M710.61,-349.65C616.9,-347.22 57.96,-331.65 33.88,-305.99 -12.33,-256.74 -10.07,-205.31 33.88,-154.02 79.05,-101.32 298.81,-94.7 385.05,-94.16"/>
<polygon fill="red" stroke="red" stroke-width="0.28" points="385.14,-97.66 395.12,-94.12 385.11,-90.66 385.14,-97.66"/>
</g>
<!-- &#45;3 -->
<g id="node3" class="node">
<title>&#45;3</title>
<polygon fill="lightgray" stroke="black" points="1040.88,-359.99 1014.88,-359.99 1014.88,-341.99 1040.88,-341.99 1040.88,-359.99"/>
<text text-anchor="middle" x="1027.88" y="-348.79" font-family="Times,serif" font-size="9.00">&#45;3</text>
</g>
<!-- &#45;3&#45;&gt;205 -->
<g id="edge36" class="edge">
<title>&#45;3&#45;&gt;205</title>
<path fill="none" stroke="green" stroke-width="0.26" d="M1014.83,-348.84C977.02,-345.21 868.79,-332.62 847.88,-305.99 831.97,-285.72 846.65,-273.75 847.88,-248.01 849.89,-206.09 830.4,-186.57 856.88,-154.02 867.13,-141.43 963.52,-115.8 1016.08,-102.58"/>
<polygon fill="green" stroke="green" stroke-width="0.26" points="1017.11,-105.93 1025.97,-100.11 1015.42,-99.13 1017.11,-105.93"/>
</g>
<!-- &#45;3&#45;&gt;206 -->
<g id="edge37" class="edge">
<title>&#45;3&#45;&gt;206</title>
<path fill="none" stroke="red" stroke-width="0.44" d="M1040.99,-350.02C1117.52,-350.04 1507.22,-348.03 1617.88,-305.99 1657.6,-290.9 1655.32,-265.84 1693.88,-248.01 1762.01,-216.49 1811.8,-270.47 1858.88,-212.01 1875.05,-191.94 1875.37,-173.83 1858.88,-154.02 1802.51,-86.29 1744.13,-154.45 1663.88,-118.02 1662.69,-117.48 1661.51,-116.89 1660.33,-116.24"/>
<polygon fill="red" stroke="red" stroke-width="0.44" points="1661.97,-113.13 1651.68,-110.62 1658.16,-119 1661.97,-113.13"/>
</g>
<!-- &#45;3&#45;&gt;207 -->
<g id="edge38" class="edge">
<title>&#45;3&#45;&gt;207</title>
<path fill="none" stroke="green" stroke-width="0.18" stroke-dasharray="1,5" d="M1040.19,-341.81C1070.85,-321.25 1152.73,-265.24 1215.88,-212.01 1251.63,-181.88 1289.97,-143.82 1313.94,-119.27"/>
<polygon fill="green" stroke="green" stroke-width="0.18" points="1316.74,-121.41 1321.19,-111.8 1311.71,-116.54 1316.74,-121.41"/>
</g>
<!-- &#45;3&#45;&gt;210 -->
<g id="edge39" class="edge">
<title>&#45;3&#45;&gt;210</title>
<path fill="none" stroke="green" stroke-width="1.06" d="M1040.89,-349.84C1179.99,-348.22 2389.1,-333.35 2458.88,-305.99 2508.81,-286.41 2552.97,-240.77 2577.77,-211.21"/>
<polygon fill="green" stroke="green" stroke-width="1.06" points="2580.6,-213.28 2584.24,-203.33 2575.19,-208.83 2580.6,-213.28"/>
</g>
<!-- &#45;3&#45;&gt;211 -->
<g id="edge40" class="edge">
<title>&#45;3&#45;&gt;211</title>
<path fill="none" stroke="green" stroke-width="0.36" d="M1020.45,-341.97C994.86,-313.4 914.55,-214.96 962.88,-154.02 1006.56,-98.95 1051.83,-144.64 1116.88,-118.02 1120.31,-116.62 1123.79,-114.94 1127.19,-113.13"/>
<polygon fill="green" stroke="green" stroke-width="0.36" points="1128.96,-116.14 1135.88,-108.12 1125.47,-110.07 1128.96,-116.14"/>
</g>
<!-- &#45;3&#45;&gt;212 -->
<g id="edge41" class="edge">
<title>&#45;3&#45;&gt;212</title>
<path fill="none" stroke="red" stroke-width="0.25" d="M1014.67,-349.51C951.2,-347.11 671.29,-335.27 443.88,-305.99 402.62,-300.68 355.6,-291.62 324.7,-285.25"/>
<polygon fill="red" stroke="red" stroke-width="0.25" points="325.38,-281.81 314.87,-283.2 323.95,-288.67 325.38,-281.81"/>
</g>
<!-- &#45;3&#45;&gt;213 -->
<g id="edge42" class="edge">
<title>&#45;3&#45;&gt;213</title>
<path fill="none" stroke="red" stroke-width="0.21" d="M1014.81,-349.66C910.39,-346.96 214.6,-328.22 176.88,-305.99 159.03,-295.47 132.35,-247.25 115.81,-214.68"/>
<polygon fill="red" stroke="red" stroke-width="0.21" points="118.84,-212.92 111.23,-205.55 112.59,-216.05 118.84,-212.92"/>
</g>
<!-- &#45;3&#45;&gt;215 -->
<g id="edge43" class="edge">
<title>&#45;3&#45;&gt;215</title>
<path fill="none" stroke="red" stroke-width="0.14" d="M1040.93,-349.72C1127.68,-347.82 1622.37,-335.81 1769.88,-305.99 1892.78,-281.15 1963.48,-314.38 2035.88,-212.01 2050.76,-190.97 2051.82,-174.27 2035.88,-154.02 1993.74,-100.49 1948.8,-146.45 1886.88,-118.02 1885.06,-117.18 1883.23,-116.24 1881.42,-115.22"/>
<polygon fill="red" stroke="red" stroke-width="0.14" points="1882.98,-112.06 1872.65,-109.67 1879.23,-117.98 1882.98,-112.06"/>
</g>
<!-- &#45;3&#45;&gt;216 -->
<g id="edge44" class="edge">
<title>&#45;3&#45;&gt;216</title>
<path fill="none" stroke="green" stroke-width="0.31" d="M1026.39,-341.98C1022.26,-319.87 1010.51,-256.99 1003.15,-217.55"/>
<polygon fill="green" stroke="green" stroke-width="0.31" points="1006.56,-216.77 1001.29,-207.59 999.68,-218.06 1006.56,-216.77"/>
</g>
<!-- &#45;3&#45;&gt;217 -->
<g id="edge45" class="edge">
<title>&#45;3&#45;&gt;217</title>
<path fill="none" stroke="green" stroke-width="0.3" stroke-dasharray="1,5" d="M1014.66,-350.48C956.34,-351.84 721.1,-348.5 633.88,-212.01 620.01,-190.29 617.07,-173.56 633.88,-154.02 668.92,-113.32 823.14,-138.28 872.88,-118.02 874.75,-117.27 876.6,-116.38 878.43,-115.41"/>
<polygon fill="green" stroke="green" stroke-width="0.3" points="880.57,-118.21 887.25,-109.99 876.9,-112.24 880.57,-118.21"/>
</g>
<!-- &#45;3&#45;&gt;218 -->
<g id="edge46" class="edge">
<title>&#45;3&#45;&gt;218</title>
<path fill="none" stroke="green" stroke-width="0.1" d="M1014.82,-350.13C966.49,-350.3 793.79,-347.76 659.88,-305.99 574.48,-279.35 528.07,-288.62 481.88,-212.01 468.58,-189.94 465.23,-173.69 481.88,-154.02 492.33,-141.68 716.87,-110.55 804.39,-98.83"/>
<polygon fill="green" stroke="green" stroke-width="0.1" points="804.91,-102.29 814.36,-97.5 803.99,-95.35 804.91,-102.29"/>
</g>
<!-- &#45;3&#45;&gt;219 -->
<g id="edge47" class="edge">
<title>&#45;3&#45;&gt;219</title>
<path fill="none" stroke="red" stroke-width="0.13" d="M1040.97,-349.82C1159.05,-348.22 2039.08,-335.35 2151.88,-305.99 2241.13,-282.76 2288.65,-290.61 2336.88,-212.01 2350.36,-190.04 2351.33,-175.36 2336.88,-154.02 2312.73,-118.35 2284.16,-139.62 2246.88,-118.02 2245.78,-117.39 2244.68,-116.71 2243.58,-116.01"/>
<polygon fill="red" stroke="red" stroke-width="0.13" points="2245.53,-113.1 2235.33,-110.22 2241.51,-118.83 2245.53,-113.1"/>
</g>
<!-- &#45;3&#45;&gt;220 -->
<g id="edge48" class="edge">
<title>&#45;3&#45;&gt;220</title>
<path fill="none" stroke="red" stroke-width="0.58" d="M1014.82,-348.55C979.03,-344.32 880.84,-330.62 861.88,-305.99 841.1,-278.99 856.58,-239.4 871.74,-212.71"/>
<polygon fill="red" stroke="red" stroke-width="0.58" points="874.91,-214.24 877.03,-203.86 868.9,-210.65 874.91,-214.24"/>
</g>
<!-- &#45;3&#45;&gt;221 -->
<g id="edge49" class="edge">
<title>&#45;3&#45;&gt;221</title>
<path fill="none" stroke="red" stroke-width="0.28" d="M1040.98,-349.49C1111.14,-346.73 1443.03,-332.43 1541.88,-305.99 1600.66,-290.27 1609.04,-269.69 1665.88,-248.01 1717.91,-228.16 1735.92,-236.58 1785.88,-212.01 1789.95,-210.01 1794.04,-207.6 1797.98,-205.04"/>
<polygon fill="red" stroke="red" stroke-width="0.28" points="1800.02,-207.88 1806.24,-199.3 1796.03,-202.13 1800.02,-207.88"/>
</g>
<!-- &#45;3&#45;&gt;222 -->
<g id="edge50" class="edge">
<title>&#45;3&#45;&gt;222</title>
<path fill="none" stroke="red" stroke-width="0.62" stroke-dasharray="1,5" d="M1041.06,-349.82C1129.54,-348.59 1635.46,-340.09 1693.88,-305.99 1720.49,-290.46 1706.56,-265.56 1731.88,-248.01 1791.79,-206.49 1825.39,-241.86 1891.88,-212.01 1896.02,-210.15 1900.15,-207.82 1904.1,-205.31"/>
<polygon fill="red" stroke="red" stroke-width="0.62" points="1906.13,-208.16 1912.38,-199.6 1902.16,-202.39 1906.13,-208.16"/>
</g>
<!-- &#45;3&#45;&gt;223 -->
<g id="edge51" class="edge">
<title>&#45;3&#45;&gt;223</title>
<path fill="none" stroke="green" stroke-width="0.24" d="M1041.12,-349.79C1155.13,-348.01 1969.53,-334.39 2073.88,-305.99 2152.2,-284.68 2233.72,-232.94 2275.13,-204.17"/>
<polygon fill="green" stroke="green" stroke-width="0.24" points="2277.18,-207.01 2283.34,-198.39 2273.15,-201.28 2277.18,-207.01"/>
</g>
<!-- &#45;3&#45;&gt;224 -->
<g id="edge52" class="edge">
<title>&#45;3&#45;&gt;224</title>
<path fill="none" stroke="red" stroke-width="0.29" d="M1014.82,-349.51C905.84,-345.5 151.07,-317.31 130.88,-305.99 66.96,-270.15 19.58,-210 66.88,-154.02 107.39,-106.09 303.63,-96.6 384.72,-94.73"/>
<polygon fill="red" stroke="red" stroke-width="0.29" points="384.99,-98.23 394.92,-94.52 384.85,-91.23 384.99,-98.23"/>
</g>
<!-- &#45;4 -->
<g id="node4" class="node">
<title>&#45;4</title>
<polygon fill="lightgray" stroke="black" points="1461.88,-286 1435.88,-286 1435.88,-268 1461.88,-268 1461.88,-286"/>
<text text-anchor="middle" x="1448.88" y="-274.8" font-family="Times,serif" font-size="9.00">&#45;4</text>
</g>
<!-- 2191 -->
<g id="node11" class="node">
<title>2191</title>
<ellipse fill="white" stroke="black" cx="780.88" cy="-183.02" rx="28.98" ry="28.98"/>
<text text-anchor="middle" x="780.88" y="-180.82" font-family="Times,serif" font-size="9.00">2191</text>
</g>
<!-- &#45;4&#45;&gt;2191 -->
<g id="edge174" class="edge">
<title>&#45;4&#45;&gt;2191</title>
<path fill="none" stroke="red" stroke-width="0.39" d="M1435.77,-275.77C1371.58,-274.38 1084.35,-265.33 856.88,-212.01 843.49,-208.87 829.23,-204.04 816.73,-199.27"/>
<polygon fill="red" stroke="red" stroke-width="0.39" points="817.71,-195.9 807.12,-195.49 815.15,-202.41 817.71,-195.9"/>
</g>
<!-- &#45;4&#45;&gt;205 -->
<g id="edge53" class="edge">
<title>&#45;4&#45;&gt;205</title>
<path fill="none" stroke="green" stroke-width="0.33" d="M1443.29,-267.74C1435.05,-255.56 1419.21,-232.08 1405.88,-212.01 1388.85,-186.33 1393.86,-170.6 1367.88,-154.02 1274.74,-94.58 1229.42,-143.43 1121.88,-118.02 1108.87,-114.95 1094.85,-110.58 1082.67,-106.42"/>
<polygon fill="green" stroke="green" stroke-width="0.33" points="1083.53,-103.01 1072.94,-103.01 1081.22,-109.62 1083.53,-103.01"/>
</g>
<!-- &#45;4&#45;&gt;206 -->
<g id="edge54" class="edge">
<title>&#45;4&#45;&gt;206</title>
<path fill="none" stroke="green" stroke-width="0.3" d="M1456.85,-267.6C1462.19,-262.01 1469.4,-254.51 1475.88,-248.01 1522.19,-201.5 1577.35,-148.33 1608.72,-118.28"/>
<polygon fill="green" stroke="green" stroke-width="0.3" points="1611.36,-120.6 1616.17,-111.16 1606.52,-115.54 1611.36,-120.6"/>
</g>
<!-- &#45;4&#45;&gt;207 -->
<g id="edge55" class="edge">
<title>&#45;4&#45;&gt;207</title>
<path fill="none" stroke="green" stroke-width="0.1" d="M1455.4,-267.76C1471.14,-246.82 1508.02,-190.62 1481.88,-154.02 1453.21,-113.88 1421.55,-138.98 1376.88,-118.02 1373.53,-116.45 1370.1,-114.66 1366.73,-112.78"/>
<polygon fill="green" stroke="green" stroke-width="0.1" points="1368.46,-109.74 1358.07,-107.71 1364.93,-115.78 1368.46,-109.74"/>
</g>
<!-- &#45;4&#45;&gt;210 -->
<g id="edge56" class="edge">
<title>&#45;4&#45;&gt;210</title>
<path fill="none" stroke="green" stroke-width="0.58" d="M1462.14,-275.46C1578.06,-270.74 2417.79,-235.84 2526.88,-212.01 2540.53,-209.03 2554.99,-203.84 2567.34,-198.73"/>
<polygon fill="green" stroke="green" stroke-width="0.58" points="2568.93,-201.86 2576.74,-194.7 2566.17,-195.42 2568.93,-201.86"/>
</g>
<!-- &#45;4&#45;&gt;211 -->
<g id="edge57" class="edge">
<title>&#45;4&#45;&gt;211</title>
<path fill="none" stroke="green" stroke-width="0.14" d="M1448.56,-267.72C1447.22,-245.68 1440.42,-185.13 1405.88,-154.02 1389.83,-139.56 1254.92,-112.77 1190.23,-100.6"/>
<polygon fill="green" stroke="green" stroke-width="0.14" points="1190.58,-97.1 1180.11,-98.7 1189.29,-103.98 1190.58,-97.1"/>
</g>
<!-- &#45;4&#45;&gt;213 -->
<g id="edge58" class="edge">
<title>&#45;4&#45;&gt;213</title>
<path fill="none" stroke="red" stroke-width="0.13" d="M1435.81,-275.92C1317.61,-275.12 431.82,-267.32 172.88,-212.01 159.22,-209.09 144.76,-203.91 132.41,-198.8"/>
<polygon fill="red" stroke="red" stroke-width="0.13" points="133.58,-195.49 123.01,-194.75 130.81,-201.92 133.58,-195.49"/>
</g>
<!-- &#45;4&#45;&gt;214 -->
<g id="edge59" class="edge">
<title>&#45;4&#45;&gt;214</title>
<path fill="none" stroke="green" stroke-width="0.44" d="M1462.06,-269.49C1475,-263.3 1495.44,-254.05 1513.88,-248.01 1581.5,-225.85 1602.73,-235.52 1669.88,-212.01 1726.17,-192.3 1735.98,-177.31 1790.88,-154.02 1833.22,-136.07 1847.3,-139.65 1887.88,-118.02 1889.66,-117.08 1891.45,-116.05 1893.23,-114.97"/>
<polygon fill="green" stroke="green" stroke-width="0.44" points="1895.48,-117.67 1901.9,-109.25 1891.63,-111.83 1895.48,-117.67"/>
</g>
<!-- &#45;4&#45;&gt;215 -->
<g id="edge60" class="edge">
<title>&#45;4&#45;&gt;215</title>
<path fill="none" stroke="red" stroke-width="0.46" d="M1462.13,-270.02C1501.42,-252.28 1620.77,-198.43 1719.88,-154.02 1754.87,-138.35 1795.04,-120.45 1822.2,-108.37"/>
<polygon fill="red" stroke="red" stroke-width="0.46" points="1823.87,-111.45 1831.59,-104.19 1821.03,-105.06 1823.87,-111.45"/>
</g>
<!-- &#45;4&#45;&gt;216 -->
<g id="edge61" class="edge">
<title>&#45;4&#45;&gt;216</title>
<path fill="none" stroke="green" stroke-width="0.24" d="M1435.84,-273.34C1375.63,-261.09 1123.52,-209.79 1031.06,-190.97"/>
<polygon fill="green" stroke="green" stroke-width="0.24" points="1031.6,-187.51 1021.1,-188.94 1030.21,-194.37 1031.6,-187.51"/>
</g>
<!-- &#45;4&#45;&gt;217 -->
<g id="edge62" class="edge">
<title>&#45;4&#45;&gt;217</title>
<path fill="none" stroke="green" stroke-width="0.71" d="M1435.74,-268.9C1397.21,-248.34 1280.75,-188.06 1177.88,-154.02 1172.18,-152.14 1011.42,-117.18 939.78,-101.63"/>
<polygon fill="green" stroke="green" stroke-width="0.71" points="940.4,-98.18 929.88,-99.48 938.91,-105.02 940.4,-98.18"/>
</g>
<!-- &#45;4&#45;&gt;218 -->
<g id="edge63" class="edge">
<title>&#45;4&#45;&gt;218</title>
<path fill="none" stroke="green" stroke-width="0.19" d="M1435.73,-273.59C1396.2,-266.21 1275.22,-242.52 1177.88,-212.01 1110.87,-191 1098,-174.72 1030.88,-154.02 961.65,-132.67 937.95,-147.78 871.88,-118.02 870.05,-117.2 868.21,-116.26 866.4,-115.25"/>
<polygon fill="green" stroke="green" stroke-width="0.19" points="867.96,-112.09 857.63,-109.72 864.22,-118.01 867.96,-112.09"/>
</g>
<!-- &#45;4&#45;&gt;219 -->
<g id="edge64" class="edge">
<title>&#45;4&#45;&gt;219</title>
<path fill="none" stroke="red" stroke-width="0.11" d="M1461.95,-275.87C1521.24,-274.98 1770.57,-267.93 1964.88,-212.01 2049.32,-187.71 2141.04,-138.47 2187.03,-112.02"/>
<polygon fill="red" stroke="red" stroke-width="0.11" points="2188.97,-114.94 2195.87,-106.9 2185.46,-108.89 2188.97,-114.94"/>
</g>
<!-- &#45;4&#45;&gt;220 -->
<g id="edge65" class="edge">
<title>&#45;4&#45;&gt;220</title>
<path fill="none" stroke="green" stroke-width="0.67" d="M1435.64,-274.69C1367.58,-267.89 1056.66,-236.04 962.88,-212.01 949.35,-208.54 934.91,-203.26 922.54,-198.22"/>
<polygon fill="green" stroke="green" stroke-width="0.67" points="923.7,-194.91 913.13,-194.26 920.99,-201.36 923.7,-194.91"/>
</g>
<!-- &#45;4&#45;&gt;221 -->
<g id="edge66" class="edge">
<title>&#45;4&#45;&gt;221</title>
<path fill="none" stroke="red" stroke-width="0.29" d="M1461.96,-269.19C1474.84,-262.77 1495.22,-253.37 1513.88,-248.01 1615.02,-218.96 1645.95,-238.11 1747.88,-212.01 1762.96,-208.15 1779.22,-202.47 1792.9,-197.24"/>
<polygon fill="red" stroke="red" stroke-width="0.29" points="1794.31,-200.44 1802.34,-193.54 1791.75,-193.93 1794.31,-200.44"/>
</g>
<!-- &#45;4&#45;&gt;222 -->
<g id="edge67" class="edge">
<title>&#45;4&#45;&gt;222</title>
<path fill="none" stroke="green" stroke-width="0.63" stroke-dasharray="1,5" d="M1461.91,-273.96C1491.44,-269.34 1565.73,-257.71 1627.88,-248.01 1730.55,-231.98 1758.54,-238.99 1858.88,-212.01 1872.37,-208.38 1886.8,-203.07 1899.18,-198.05"/>
<polygon fill="green" stroke="green" stroke-width="0.63" points="1900.72,-201.2 1908.6,-194.12 1898.03,-194.74 1900.72,-201.2"/>
</g>
<!-- &#45;4&#45;&gt;223 -->
<g id="edge68" class="edge">
<title>&#45;4&#45;&gt;223</title>
<path fill="none" stroke="green" stroke-width="0.18" d="M1461.96,-274.59C1555.31,-264.54 2121.3,-203.57 2268.12,-187.76"/>
<polygon fill="green" stroke="green" stroke-width="0.18" points="2268.77,-191.21 2278.34,-186.66 2268.02,-184.25 2268.77,-191.21"/>
</g>
<!-- &#45;4&#45;&gt;224 -->
<g id="edge69" class="edge">
<title>&#45;4&#45;&gt;224</title>
<path fill="none" stroke="green" stroke-width="0.3" stroke-dasharray="1,5" d="M1435.69,-276.07C1364.31,-276.17 1017.33,-273.37 742.88,-212.01 632.21,-187.26 507.89,-134.39 451.15,-108.78"/>
<polygon fill="green" stroke="green" stroke-width="0.3" points="452.54,-105.57 441.99,-104.62 449.65,-111.94 452.54,-105.57"/>
</g>
<!-- 3184 -->
<g id="node32" class="node">
<title>3184</title>
<ellipse fill="white" stroke="black" cx="2488.88" cy="-183.02" rx="28.98" ry="28.98"/>
<text text-anchor="middle" x="2488.88" y="-180.82" font-family="Times,serif" font-size="9.00">3184</text>
</g>
<!-- &#45;4&#45;&gt;3184 -->
<g id="edge177" class="edge">
<title>&#45;4&#45;&gt;3184</title>
<path fill="none" stroke="red" stroke-width="0.11" d="M1461.97,-275.6C1542.78,-273.01 1981.95,-257.34 2336.88,-212.01 2375.98,-207.01 2420.26,-198.53 2450.89,-192.21"/>
<polygon fill="red" stroke="red" stroke-width="0.11" points="2451.66,-195.63 2460.73,-190.16 2450.23,-188.78 2451.66,-195.63"/>
</g>
<!-- &#45;5 -->
<g id="node5" class="node">
<title>&#45;5</title>
<polygon fill="lightgray" stroke="black" points="1920.88,-359.99 1894.88,-359.99 1894.88,-341.99 1920.88,-341.99 1920.88,-359.99"/>
<text text-anchor="middle" x="1907.88" y="-348.79" font-family="Times,serif" font-size="9.00">&#45;5</text>
</g>
<!-- &#45;5&#45;&gt;205 -->
<g id="edge70" class="edge">
<title>&#45;5&#45;&gt;205</title>
<path fill="none" stroke="green" stroke-width="0.69" stroke-dasharray="1,5" d="M1894.67,-349.57C1817.7,-347.02 1429.08,-332.91 1383.88,-305.99 1357.41,-290.22 1369.81,-267.42 1345.88,-248.01 1311.79,-220.34 1293.45,-231.03 1253.88,-212.01 1189.57,-181.08 1118.14,-137.61 1079.19,-113.07"/>
<polygon fill="green" stroke="green" stroke-width="0.69" points="1080.79,-109.94 1070.46,-107.55 1077.04,-115.85 1080.79,-109.94"/>
</g>
<!-- &#45;5&#45;&gt;206 -->
<g id="edge71" class="edge">
<title>&#45;5&#45;&gt;206</title>
<path fill="none" stroke="red" stroke-width="0.22" d="M1920.9,-350.72C1950.52,-351.57 2022.91,-348.94 2054.88,-305.99 2099.4,-246.19 2048.65,-190.93 1983.88,-154.02 1859.53,-83.17 1796.21,-172.55 1663.88,-118.02 1662.67,-117.53 1661.47,-116.96 1660.29,-116.35"/>
<polygon fill="red" stroke="red" stroke-width="0.22" points="1661.9,-113.23 1651.57,-110.86 1658.17,-119.15 1661.9,-113.23"/>
</g>
<!-- &#45;5&#45;&gt;207 -->
<g id="edge72" class="edge">
<title>&#45;5&#45;&gt;207</title>
<path fill="none" stroke="red" stroke-width="0.28" d="M1895.65,-341.9C1850.24,-312.2 1686.17,-208.17 1536.88,-154.02 1464.69,-127.84 1437.37,-150.72 1367.88,-118.02 1366.7,-117.47 1365.52,-116.86 1364.35,-116.2"/>
<polygon fill="red" stroke="red" stroke-width="0.28" points="1366,-113.09 1355.72,-110.53 1362.16,-118.95 1366,-113.09"/>
</g>
<!-- &#45;5&#45;&gt;210 -->
<g id="edge73" class="edge">
<title>&#45;5&#45;&gt;210</title>
<path fill="none" stroke="red" stroke-width="0.38" d="M1921.14,-349.73C2019.86,-347.73 2637.32,-334.14 2663.88,-305.99 2681.57,-287.25 2673.84,-271.78 2663.88,-248.01 2656.37,-230.06 2641.09,-214.6 2627.23,-203.37"/>
<polygon fill="red" stroke="red" stroke-width="0.38" points="2629.37,-200.59 2619.31,-197.26 2625.09,-206.14 2629.37,-200.59"/>
</g>
<!-- &#45;5&#45;&gt;211 -->
<g id="edge74" class="edge">
<title>&#45;5&#45;&gt;211</title>
<path fill="none" stroke="green" stroke-width="0.12" d="M1894.84,-349.43C1822.14,-346.23 1468.83,-329.56 1426.88,-305.99 1398.91,-290.27 1406.71,-270.56 1383.88,-248.01 1333.16,-197.9 1313.25,-193.5 1253.88,-154.02 1231.54,-139.17 1205.58,-123.41 1186,-111.8"/>
<polygon fill="green" stroke="green" stroke-width="0.12" points="1187.6,-108.69 1177.21,-106.63 1184.05,-114.72 1187.6,-108.69"/>
</g>
<!-- &#45;5&#45;&gt;212 -->
<g id="edge75" class="edge">
<title>&#45;5&#45;&gt;212</title>
<path fill="none" stroke="green" stroke-width="0.6" d="M1894.81,-349.43C1808.16,-345.72 1307.61,-324.26 899.88,-305.99 681.5,-296.2 419.09,-283.99 325.84,-279.63"/>
<polygon fill="green" stroke="green" stroke-width="0.6" points="325.98,-276.14 315.83,-279.17 325.65,-283.13 325.98,-276.14"/>
</g>
<!-- &#45;5&#45;&gt;213 -->
<g id="edge76" class="edge">
<title>&#45;5&#45;&gt;213</title>
<path fill="none" stroke="red" stroke-width="0.17" d="M1894.67,-349.61C1854.37,-348.43 1729.43,-344.82 1625.88,-341.99 1549.83,-339.91 325.13,-339.63 256.88,-305.99 227.13,-291.32 235.63,-268.93 209.88,-248.01 182.73,-225.95 169.73,-230.26 139.88,-212.01 136.2,-209.76 132.42,-207.27 128.72,-204.74"/>
<polygon fill="red" stroke="red" stroke-width="0.17" points="130.53,-201.74 120.34,-198.84 126.5,-207.46 130.53,-201.74"/>
</g>
<!-- &#45;5&#45;&gt;214 -->
<g id="edge77" class="edge">
<title>&#45;5&#45;&gt;214</title>
<path fill="none" stroke="green" stroke-width="0.36" d="M1920.93,-350.16C2009.65,-351.19 2522.04,-355 2567.88,-305.99 2585.49,-287.17 2583.19,-268.74 2567.88,-248.01 2535.56,-204.24 2499.64,-236.16 2450.88,-212.01 2411.21,-192.36 2411.05,-170.31 2369.88,-154.02 2294.27,-124.11 2047.79,-103.53 1955.87,-96.73"/>
<polygon fill="green" stroke="green" stroke-width="0.36" points="1955.92,-93.23 1945.7,-95.99 1955.41,-100.21 1955.92,-93.23"/>
</g>
<!-- &#45;5&#45;&gt;215 -->
<g id="edge78" class="edge">
<title>&#45;5&#45;&gt;215</title>
<path fill="none" stroke="red" stroke-width="0.13" d="M1920.97,-350.02C2002.58,-350.06 2439.7,-348.3 2478.88,-305.99 2496.39,-287.08 2493.98,-268.89 2478.88,-248.01 2449,-206.66 2409.35,-244.33 2369.88,-212.01 2346.94,-193.22 2361.9,-169.94 2336.88,-154.02 2252.24,-100.18 1981.06,-152.59 1886.88,-118.02 1884.99,-117.33 1883.12,-116.5 1881.27,-115.56"/>
<polygon fill="red" stroke="red" stroke-width="0.13" points="1882.79,-112.39 1872.42,-110.25 1879.19,-118.39 1882.79,-112.39"/>
</g>
<!-- &#45;5&#45;&gt;216 -->
<g id="edge79" class="edge">
<title>&#45;5&#45;&gt;216</title>
<path fill="none" stroke="red" stroke-width="0.21" d="M1894.43,-349.51C1817.55,-346.71 1433.19,-331.63 1317.88,-305.99 1288.43,-299.44 1104.88,-226.99 1029.32,-196.95"/>
<polygon fill="red" stroke="red" stroke-width="0.21" points="1030.41,-193.62 1019.82,-193.17 1027.82,-200.12 1030.41,-193.62"/>
</g>
<!-- &#45;5&#45;&gt;217 -->
<g id="edge80" class="edge">
<title>&#45;5&#45;&gt;217</title>
<path fill="none" stroke="red" stroke-width="0.22" stroke-dasharray="1,5" d="M1894.49,-349.81C1819.62,-348.67 1452.48,-341.34 1345.88,-305.99 1300.01,-290.77 1297.6,-268.62 1253.88,-248.01 1207.74,-226.25 1191.98,-231.63 1144.88,-212.01 1092.41,-190.15 1081.86,-179.17 1030.88,-154.02 999.13,-138.36 962.57,-120.96 937.22,-108.99"/>
<polygon fill="red" stroke="red" stroke-width="0.22" points="938.63,-105.79 928.09,-104.69 935.64,-112.12 938.63,-105.79"/>
</g>
<!-- &#45;5&#45;&gt;219 -->
<g id="edge81" class="edge">
<title>&#45;5&#45;&gt;219</title>
<path fill="none" stroke="green" stroke-width="0.42" d="M1921.15,-349.75C2021.33,-347.87 2655.61,-334.86 2682.88,-305.99 2731.71,-254.31 2691.07,-194.89 2632.88,-154.02 2571.49,-110.91 2340.3,-98.51 2251.72,-95.3"/>
<polygon fill="green" stroke="green" stroke-width="0.42" points="2251.76,-91.8 2241.64,-94.95 2251.52,-98.79 2251.76,-91.8"/>
</g>
<!-- &#45;5&#45;&gt;220 -->
<g id="edge82" class="edge">
<title>&#45;5&#45;&gt;220</title>
<path fill="none" stroke="red" stroke-width="0.29" d="M1894.75,-349.59C1800.71,-346.65 1231.19,-328.03 1157.88,-305.99 1108.68,-291.2 1104.28,-270.07 1057.88,-248.01 1017.11,-228.62 1005.04,-228.19 962.88,-212.01 949.94,-207.04 935.71,-201.52 923.34,-196.7"/>
<polygon fill="red" stroke="red" stroke-width="0.29" points="924.47,-193.39 913.89,-193.02 921.93,-199.91 924.47,-193.39"/>
</g>
<!-- &#45;5&#45;&gt;221 -->
<g id="edge83" class="edge">
<title>&#45;5&#45;&gt;221</title>
<path fill="none" stroke="green" stroke-width="0.44" d="M1903.88,-341.98C1892.57,-319.36 1859.91,-254.05 1840.3,-214.85"/>
<polygon fill="green" stroke="green" stroke-width="0.44" points="1843.22,-212.87 1835.62,-205.49 1836.96,-216 1843.22,-212.87"/>
</g>
<!-- &#45;5&#45;&gt;222 -->
<g id="edge84" class="edge">
<title>&#45;5&#45;&gt;222</title>
<path fill="none" stroke="red" stroke-width="0.14" d="M1921.27,-350.05C1948.31,-349.35 2009.13,-343.48 2035.88,-305.99 2050.85,-285.01 2048.5,-270.48 2035.88,-248.01 2020.72,-221.01 1989.04,-204.07 1964.43,-194.45"/>
<polygon fill="red" stroke="red" stroke-width="0.14" points="1965.31,-191.04 1954.72,-190.88 1962.9,-197.62 1965.31,-191.04"/>
</g>
<!-- &#45;5&#45;&gt;223 -->
<g id="edge85" class="edge">
<title>&#45;5&#45;&gt;223</title>
<path fill="none" stroke="red" stroke-width="0.12" d="M1921.02,-349.98C2001.09,-349.78 2421.21,-346.8 2458.88,-305.99 2476.37,-287.06 2474.19,-268.74 2458.88,-248.01 2426.56,-204.24 2390.62,-236.19 2341.88,-212.01 2338.02,-210.09 2334.12,-207.8 2330.37,-205.38"/>
<polygon fill="red" stroke="red" stroke-width="0.12" points="2332.16,-202.36 2321.94,-199.56 2328.18,-208.12 2332.16,-202.36"/>
</g>
<!-- &#45;5&#45;&gt;224 -->
<g id="edge86" class="edge">
<title>&#45;5&#45;&gt;224</title>
<path fill="none" stroke="green" stroke-width="0.67" d="M1894.78,-349.56C1800.71,-346.45 1226.89,-326.84 1053.88,-305.99 998.52,-299.32 611.29,-235.86 560.88,-212.01 513.66,-189.66 469.13,-147.7 443.19,-120.38"/>
<polygon fill="green" stroke="green" stroke-width="0.67" points="445.45,-117.67 436.07,-112.75 440.33,-122.45 445.45,-117.67"/>
</g>
<!-- &#45;5&#45;&gt;3184 -->
<g id="edge182" class="edge">
<title>&#45;5&#45;&gt;3184</title>
<path fill="none" stroke="red" stroke-width="0.5" d="M1921.1,-349.71C2018.18,-347.59 2618.07,-333.39 2643.88,-305.99 2661.55,-287.23 2658.21,-269.43 2643.88,-248.01 2640.36,-242.74 2569.85,-215 2525.15,-197.82"/>
<polygon fill="red" stroke="red" stroke-width="0.5" points="2526.36,-194.54 2515.77,-194.22 2523.85,-201.07 2526.36,-194.54"/>
</g>
<!-- 0 -->
<g id="node6" class="node">
<title>0</title>
<ellipse fill="lightblue" stroke="black" cx="1633.88" cy="-16.26" rx="16.03" ry="16.03"/>
<text text-anchor="middle" x="1633.88" y="-14.06" font-family="Times,serif" font-size="9.00">0</text>
</g>
<!-- 1 -->
<g id="node7" class="node">
<title>1</title>
<ellipse fill="lightblue" stroke="black" cx="1155.88" cy="-16.26" rx="16.03" ry="16.03"/>
<text text-anchor="middle" x="1155.88" y="-14.06" font-family="Times,serif" font-size="9.00">1</text>
</g>
<!-- 2 -->
<g id="node8" class="node">
<title>2</title>
<ellipse fill="lightblue" stroke="black" cx="1226.88" cy="-16.26" rx="16.03" ry="16.03"/>
<text text-anchor="middle" x="1226.88" y="-14.06" font-family="Times,serif" font-size="9.00">2</text>
</g>
<!-- 3 -->
<g id="node9" class="node">
<title>3</title>
<ellipse fill="lightblue" stroke="black" cx="1504.88" cy="-16.26" rx="16.03" ry="16.03"/>
<text text-anchor="middle" x="1504.88" y="-14.06" font-family="Times,serif" font-size="9.00">3</text>
</g>
<!-- 4 -->
<g id="node10" class="node">
<title>4</title>
<ellipse fill="lightblue" stroke="black" cx="1317.88" cy="-16.26" rx="16.03" ry="16.03"/>
<text text-anchor="middle" x="1317.88" y="-14.06" font-family="Times,serif" font-size="9.00">4</text>
</g>
<!-- 2191&#45;&gt;224 -->
<g id="edge175" class="edge">
<title>2191&#45;&gt;224</title>
<path fill="none" stroke="red" stroke-width="0.34" d="M752.5,-176.96C679,-163.79 486.3,-128.71 458.88,-118.02 455.43,-116.68 451.94,-115.03 448.54,-113.24"/>
<polygon fill="red" stroke="red" stroke-width="0.34" points="450.25,-110.19 439.83,-108.26 446.77,-116.26 450.25,-110.19"/>
</g>
<!-- 7442 -->
<g id="node12" class="node">
<title>7442</title>
<ellipse fill="white" stroke="black" cx="210.88" cy="-183.02" rx="28.98" ry="28.98"/>
<text text-anchor="middle" x="210.88" y="-180.82" font-family="Times,serif" font-size="9.00">7442</text>
</g>
<!-- 7442&#45;&gt;224 -->
<g id="edge185" class="edge">
<title>7442&#45;&gt;224</title>
<path fill="none" stroke="green" stroke-width="0.15" d="M234.41,-165.31C240.58,-161.32 247.34,-157.28 253.88,-154.02 297.88,-132.16 351.91,-114.23 386.13,-103.9"/>
<polygon fill="green" stroke="green" stroke-width="0.15" points="387.5,-107.15 396.09,-100.94 385.5,-100.44 387.5,-107.15"/>
</g>
<!-- 205&#45;&gt;0 -->
<g id="edge87" class="edge">
<title>205&#45;&gt;0</title>
<path fill="none" stroke="red" stroke-width="0.51" d="M1072.54,-83.31C1086.54,-78.15 1105,-72.01 1121.88,-68.53 1300.17,-31.77 1349.09,-53.75 1529.88,-32.53 1556.43,-29.41 1586.64,-24.86 1607.64,-21.54"/>
<polygon fill="red" stroke="red" stroke-width="0.51" points="1608.39,-24.97 1617.71,-19.93 1607.28,-18.06 1608.39,-24.97"/>
</g>
<!-- 205&#45;&gt;1 -->
<g id="edge88" class="edge">
<title>205&#45;&gt;1</title>
<path fill="none" stroke="red" stroke-width="0.14" stroke-dasharray="1,5" d="M1069.82,-78.17C1088.36,-65.05 1115.87,-45.58 1134.77,-32.2"/>
<polygon fill="red" stroke="red" stroke-width="0.14" points="1136.9,-34.99 1143.04,-26.35 1132.85,-29.27 1136.9,-34.99"/>
</g>
<!-- 205&#45;&gt;2 -->
<g id="edge89" class="edge">
<title>205&#45;&gt;2</title>
<path fill="none" stroke="green" stroke-width="0.12" d="M1070.12,-78.95C1076.04,-75.33 1082.61,-71.57 1088.88,-68.53 1109.31,-58.63 1167.83,-37.79 1201.74,-25.95"/>
<polygon fill="green" stroke="green" stroke-width="0.12" points="1203.11,-29.18 1211.41,-22.59 1200.81,-22.57 1203.11,-29.18"/>
</g>
<!-- 205&#45;&gt;3 -->
<g id="edge90" class="edge">
<title>205&#45;&gt;3</title>
<path fill="none" stroke="red" stroke-width="0.44" d="M1069.71,-77.98C1075.63,-74.34 1082.29,-70.82 1088.88,-68.53 1125.76,-55.7 1393.12,-28.36 1478.65,-19.85"/>
<polygon fill="red" stroke="red" stroke-width="0.44" points="1479.21,-23.31 1488.81,-18.84 1478.52,-16.34 1479.21,-23.31"/>
</g>
<!-- 205&#45;&gt;4 -->
<g id="edge91" class="edge">
<title>205&#45;&gt;4</title>
<path fill="none" stroke="red" stroke-width="0.4" d="M1069.86,-78.38C1075.78,-74.75 1082.41,-71.13 1088.88,-68.53 1157.72,-40.86 1179.52,-48.89 1251.88,-32.53 1265.19,-29.52 1279.99,-26.1 1292.2,-23.27"/>
<polygon fill="red" stroke="red" stroke-width="0.4" points="1293.21,-26.62 1302.16,-20.95 1291.62,-19.81 1293.21,-26.62"/>
</g>
<!-- 206&#45;&gt;0 -->
<g id="edge92" class="edge">
<title>206&#45;&gt;0</title>
<path fill="none" stroke="red" stroke-width="0.67" d="M1633.88,-68.13C1633.88,-60.03 1633.88,-50.97 1633.88,-42.77"/>
<polygon fill="red" stroke="red" stroke-width="0.67" points="1637.38,-42.64 1633.88,-32.64 1630.38,-42.64 1637.38,-42.64"/>
</g>
<!-- 206&#45;&gt;1 -->
<g id="edge93" class="edge">
<title>206&#45;&gt;1</title>
<path fill="none" stroke="red" stroke-width="0.15" d="M1609.53,-88.3C1579.37,-83.42 1526.39,-74.99 1480.88,-68.53 1357.1,-50.94 1323.78,-60.34 1201.88,-32.53 1194.83,-30.92 1187.32,-28.67 1180.46,-26.39"/>
<polygon fill="red" stroke="red" stroke-width="0.15" points="1181.6,-23.08 1171.01,-23.1 1179.3,-29.69 1181.6,-23.08"/>
</g>
<!-- 206&#45;&gt;2 -->
<g id="edge94" class="edge">
<title>206&#45;&gt;2</title>
<path fill="none" stroke="green" stroke-width="0.16" d="M1614.06,-77.96C1608.15,-74.32 1601.48,-70.81 1594.88,-68.53 1467.13,-24.37 1426.04,-55.79 1292.88,-32.53 1279.44,-30.18 1264.63,-26.82 1252.45,-23.86"/>
<polygon fill="green" stroke="green" stroke-width="0.16" points="1253.07,-20.41 1242.52,-21.39 1251.38,-27.2 1253.07,-20.41"/>
</g>
<!-- 206&#45;&gt;3 -->
<g id="edge95" class="edge">
<title>206&#45;&gt;3</title>
<path fill="none" stroke="green" stroke-width="0.28" d="M1612.9,-79.34C1607.09,-75.8 1600.76,-71.99 1594.88,-68.53 1572.06,-55.08 1545.7,-40.13 1527.43,-29.87"/>
<polygon fill="green" stroke="green" stroke-width="0.28" points="1529.11,-26.8 1518.68,-24.96 1525.69,-32.9 1529.11,-26.8"/>
</g>
<!-- 206&#45;&gt;4 -->
<g id="edge96" class="edge">
<title>206&#45;&gt;4</title>
<path fill="none" stroke="red" stroke-width="0.5" stroke-dasharray="1,5" d="M1613.96,-78.23C1608.04,-74.6 1601.4,-71.02 1594.88,-68.53 1506.78,-34.86 1394.22,-22.83 1344.05,-18.94"/>
<polygon fill="red" stroke="red" stroke-width="0.5" points="1344.28,-15.44 1334.05,-18.21 1343.77,-22.43 1344.28,-15.44"/>
</g>
<!-- 207&#45;&gt;0 -->
<g id="edge97" class="edge">
<title>207&#45;&gt;0</title>
<path fill="none" stroke="red" stroke-width="0.6" d="M1361.86,-86.2C1416.81,-72.27 1551.48,-38.15 1608.12,-23.79"/>
<polygon fill="red" stroke="red" stroke-width="0.6" points="1609.22,-27.12 1618.06,-21.27 1607.5,-20.34 1609.22,-27.12"/>
</g>
<!-- 207&#45;&gt;1 -->
<g id="edge98" class="edge">
<title>207&#45;&gt;1</title>
<path fill="none" stroke="red" stroke-width="0.54" d="M1315.2,-82.93C1280.86,-68.77 1215.92,-42.01 1180.48,-27.4"/>
<polygon fill="red" stroke="red" stroke-width="0.54" points="1181.48,-24.03 1170.9,-23.45 1178.81,-30.5 1181.48,-24.03"/>
</g>
<!-- 207&#45;&gt;2 -->
<g id="edge99" class="edge">
<title>207&#45;&gt;2</title>
<path fill="none" stroke="red" stroke-width="0.44" d="M1317.78,-78.69C1298.17,-65.44 1268.44,-45.34 1248.37,-31.78"/>
<polygon fill="red" stroke="red" stroke-width="0.44" points="1250.14,-28.76 1239.89,-26.06 1246.22,-34.56 1250.14,-28.76"/>
</g>
<!-- 207&#45;&gt;3 -->
<g id="edge100" class="edge">
<title>207&#45;&gt;3</title>
<path fill="none" stroke="red" stroke-width="1.33" d="M1360.41,-82.16C1391.87,-68.03 1448.74,-42.48 1480.95,-28.01"/>
<polygon fill="red" stroke="red" stroke-width="1.33" points="1482.41,-31.2 1490.1,-23.9 1479.54,-24.81 1482.41,-31.2"/>
</g>
<!-- 207&#45;&gt;4 -->
<g id="edge101" class="edge">
<title>207&#45;&gt;4</title>
<path fill="none" stroke="green" stroke-width="0.13" d="M1331.66,-68.95C1329.38,-60.39 1326.79,-50.67 1324.48,-41.99"/>
<polygon fill="green" stroke="green" stroke-width="0.13" points="1327.79,-40.83 1321.83,-32.07 1321.02,-42.63 1327.79,-40.83"/>
</g>
<!-- 210&#45;&gt;0 -->
<g id="edge102" class="edge">
<title>210&#45;&gt;0</title>
<path fill="none" stroke="red" stroke-width="0.41" d="M2596.76,-157.91C2593,-131.21 2582.6,-89.22 2553.88,-68.53 2479.65,-15.03 1803.28,-16.21 1660.34,-17.06"/>
<polygon fill="red" stroke="red" stroke-width="0.41" points="1660.25,-13.57 1650.27,-17.13 1660.3,-20.56 1660.25,-13.57"/>
</g>
<!-- 210&#45;&gt;2 -->
<g id="edge103" class="edge">
<title>210&#45;&gt;2</title>
<path fill="none" stroke="red" stroke-width="0.54" stroke-dasharray="1,5" d="M2580.33,-166.54C2574.13,-161.98 2566.99,-157.33 2559.88,-154.02 2500.85,-126.56 2480.66,-135.28 2417.88,-118.02 2343.24,-97.51 2327.27,-81.08 2250.88,-68.53 1830.44,0.55 1715.23,-88.78 1292.88,-32.53 1279.36,-30.73 1264.54,-27.42 1252.37,-24.35"/>
<polygon fill="red" stroke="red" stroke-width="0.54" points="1253.03,-20.9 1242.47,-21.75 1251.25,-27.67 1253.03,-20.9"/>
</g>
<!-- 210&#45;&gt;3 -->
<g id="edge104" class="edge">
<title>210&#45;&gt;3</title>
<path fill="none" stroke="red" stroke-width="0.46" stroke-dasharray="1,5" d="M2584.29,-162.59C2561.57,-132.99 2518.06,-78.89 2495.88,-68.53 2406.52,-26.76 1707.09,-41.7 1608.88,-32.53 1582.27,-30.04 1552.07,-25.4 1531.09,-21.89"/>
<polygon fill="red" stroke="red" stroke-width="0.46" points="1531.48,-18.41 1521.03,-20.17 1530.3,-25.31 1531.48,-18.41"/>
</g>
<!-- 210&#45;&gt;4 -->
<g id="edge105" class="edge">
<title>210&#45;&gt;4</title>
<path fill="none" stroke="green" stroke-width="0.39" d="M2579.33,-167.35C2573.2,-162.92 2566.35,-158.15 2559.88,-154.02 2532.36,-136.48 2523.89,-134.77 2495.88,-118.02 2460.65,-96.95 2457.08,-80.74 2417.88,-68.53 2318.3,-37.51 1583.95,-39.42 1479.88,-32.53 1431.98,-29.35 1376.27,-23.67 1344.25,-20.2"/>
<polygon fill="green" stroke="green" stroke-width="0.39" points="1344.28,-16.68 1333.96,-19.08 1343.52,-23.64 1344.28,-16.68"/>
</g>
<!-- 211&#45;&gt;0 -->
<g id="edge106" class="edge">
<title>211&#45;&gt;0</title>
<path fill="none" stroke="green" stroke-width="0.1" d="M1175.69,-77.91C1181.6,-74.27 1188.28,-70.77 1194.88,-68.53 1336.69,-20.43 1381.33,-51.4 1529.88,-32.53 1556.4,-29.16 1586.62,-24.65 1607.62,-21.4"/>
<polygon fill="green" stroke="green" stroke-width="0.1" points="1608.35,-24.83 1617.7,-19.84 1607.28,-17.92 1608.35,-24.83"/>
</g>
<!-- 211&#45;&gt;1 -->
<g id="edge107" class="edge">
<title>211&#45;&gt;1</title>
<path fill="none" stroke="green" stroke-width="0.46" d="M1155.88,-68.13C1155.88,-60.03 1155.88,-50.97 1155.88,-42.77"/>
<polygon fill="green" stroke="green" stroke-width="0.46" points="1159.38,-42.64 1155.88,-32.64 1152.38,-42.64 1159.38,-42.64"/>
</g>
<!-- 211&#45;&gt;2 -->
<g id="edge108" class="edge">
<title>211&#45;&gt;2</title>
<path fill="none" stroke="red" stroke-width="0.15" d="M1172.71,-74.5C1183.64,-62.95 1197.87,-47.92 1209,-36.16"/>
<polygon fill="red" stroke="red" stroke-width="0.15" points="1211.8,-38.29 1216.13,-28.62 1206.72,-33.48 1211.8,-38.29"/>
</g>
<!-- 211&#45;&gt;3 -->
<g id="edge109" class="edge">
<title>211&#45;&gt;3</title>
<path fill="none" stroke="red" stroke-width="0.39" d="M1175.78,-78.15C1181.69,-74.52 1188.34,-70.95 1194.88,-68.53 1247.1,-49.15 1413.23,-28.07 1478.34,-20.33"/>
<polygon fill="red" stroke="red" stroke-width="0.39" points="1479.07,-23.77 1488.59,-19.13 1478.25,-16.82 1479.07,-23.77"/>
</g>
<!-- 211&#45;&gt;4 -->
<g id="edge110" class="edge">
<title>211&#45;&gt;4</title>
<path fill="none" stroke="red" stroke-width="0.12" d="M1176.19,-79.11C1182.12,-75.49 1188.67,-71.69 1194.88,-68.53 1228.04,-51.64 1268.09,-35.74 1293.28,-26.25"/>
<polygon fill="red" stroke="red" stroke-width="0.12" points="1294.64,-29.48 1302.79,-22.71 1292.19,-22.92 1294.64,-29.48"/>
</g>
<!-- 212&#45;&gt;0 -->
<g id="edge111" class="edge">
<title>212&#45;&gt;0</title>
<path fill="none" stroke="red" stroke-width="0.44" d="M315.85,-274.62C420.57,-268.77 834.62,-244.69 1173.88,-212.01 1217.38,-207.82 1925.89,-150.72 1954.88,-118.02 2038.87,-23.33 1750.68,-16.75 1660.2,-16.96"/>
<polygon fill="red" stroke="red" stroke-width="0.44" points="1660.17,-13.46 1650.19,-17.02 1660.21,-20.46 1660.17,-13.46"/>
</g>
<!-- 212&#45;&gt;1 -->
<g id="edge112" class="edge">
<title>212&#45;&gt;1</title>
<path fill="none" stroke="red" stroke-width="0.37" d="M266.12,-272.67C213.03,-264.98 91.12,-244.13 66.88,-212.01 56.09,-197.69 61.48,-77.93 70.88,-68.53 109.49,-29.9 966.84,-19.2 1129.41,-17.52"/>
<polygon fill="red" stroke="red" stroke-width="0.37" points="1129.53,-21.02 1139.49,-17.42 1129.46,-14.02 1129.53,-21.02"/>
</g>
<!-- 212&#45;&gt;2 -->
<g id="edge113" class="edge">
<title>212&#45;&gt;2</title>
<path fill="none" stroke="green" stroke-width="0.66" d="M270.66,-262.06C263.58,-257.39 255.49,-252.29 247.88,-248.01 215.66,-229.88 192.58,-243.3 172.88,-212.01 159.16,-190.2 158.45,-175.37 172.88,-154.02 230.02,-69.52 286.19,-90.14 385.88,-68.53 731.55,6.41 833.08,-96.83 1180.88,-32.53 1188,-31.21 1195.53,-29.06 1202.38,-26.78"/>
<polygon fill="green" stroke="green" stroke-width="0.66" points="1203.57,-30.07 1211.83,-23.43 1201.23,-23.47 1203.57,-30.07"/>
</g>
<!-- 212&#45;&gt;3 -->
<g id="edge114" class="edge">
<title>212&#45;&gt;3</title>
<path fill="none" stroke="green" stroke-width="0.29" d="M315.69,-275.49C409.77,-273.23 753.24,-261.84 1030.88,-212.01 1185.62,-184.23 1230.92,-187.62 1371.88,-118.02 1416.69,-95.9 1461.5,-57.84 1485.97,-35.37"/>
<polygon fill="green" stroke="green" stroke-width="0.29" points="1488.52,-37.77 1493.45,-28.39 1483.75,-32.65 1488.52,-37.77"/>
</g>
<!-- 212&#45;&gt;4 -->
<g id="edge115" class="edge">
<title>212&#45;&gt;4</title>
<path fill="none" stroke="red" stroke-width="0.1" d="M304.46,-256.03C324.27,-228.53 363.81,-179.52 409.88,-154.02 740.7,29.05 878.25,-90.46 1251.88,-32.53 1265.37,-30.44 1280.18,-27.11 1292.36,-24.09"/>
<polygon fill="red" stroke="red" stroke-width="0.1" points="1293.45,-27.42 1302.27,-21.56 1291.72,-20.64 1293.45,-27.42"/>
</g>
<!-- 212&#45;&gt;7442 -->
<g id="edge184" class="edge">
<title>212&#45;&gt;7442</title>
<path fill="none" stroke="green" stroke-width="0.27" d="M275.08,-257.83C264.01,-245.1 248.99,-227.83 236.26,-213.19"/>
<polygon fill="green" stroke="green" stroke-width="0.27" points="238.67,-210.63 229.46,-205.38 233.38,-215.22 238.67,-210.63"/>
</g>
<!-- 212&#45;&gt;213 -->
<g id="edge183" class="edge">
<title>212&#45;&gt;213</title>
<path fill="none" stroke="green" stroke-width="0.26" d="M271.46,-261.47C264.57,-256.75 256.6,-251.77 248.88,-248.01 203.02,-225.66 185.35,-235.15 139.88,-212.01 136.04,-210.05 132.16,-207.74 128.41,-205.3"/>
<polygon fill="green" stroke="green" stroke-width="0.26" points="130.2,-202.28 119.98,-199.48 126.22,-208.04 130.2,-202.28"/>
</g>
<!-- 212&#45;&gt;224 -->
<g id="edge176" class="edge">
<title>212&#45;&gt;224</title>
<path fill="none" stroke="red" stroke-width="0.18" stroke-dasharray="1,5" d="M284.23,-252.81C278.16,-226.62 272.77,-183.78 291.88,-154.02 312.49,-121.96 355.26,-106.8 385.68,-99.85"/>
<polygon fill="red" stroke="red" stroke-width="0.18" points="386.41,-103.27 395.48,-97.79 384.97,-96.42 386.41,-103.27"/>
</g>
<!-- 213&#45;&gt;1 -->
<g id="edge116" class="edge">
<title>213&#45;&gt;1</title>
<path fill="none" stroke="red" stroke-width="0.24" d="M89.53,-160.92C77.58,-135.48 63.46,-93.1 86.88,-68.53 123.97,-29.62 967.67,-19.16 1129.26,-17.51"/>
<polygon fill="red" stroke="red" stroke-width="0.24" points="1129.34,-21.01 1139.3,-17.41 1129.27,-14.01 1129.34,-21.01"/>
</g>
<!-- 213&#45;&gt;2 -->
<g id="edge117" class="edge">
<title>213&#45;&gt;2</title>
<path fill="none" stroke="green" stroke-width="0.73" d="M98.23,-158.24C96.76,-131.86 99.12,-90.15 124.88,-68.53 169.85,-30.79 1123.1,-42.88 1180.88,-32.53 1188.01,-31.25 1195.53,-29.11 1202.39,-26.83"/>
<polygon fill="green" stroke="green" stroke-width="0.73" points="1203.59,-30.12 1211.83,-23.47 1201.24,-23.52 1203.59,-30.12"/>
</g>
<!-- 213&#45;&gt;3 -->
<g id="edge118" class="edge">
<title>213&#45;&gt;3</title>
<path fill="none" stroke="red" stroke-width="0.11" stroke-dasharray="1,5" d="M123.12,-171.75C137.12,-165.69 155.73,-158.39 172.88,-154.02 294.91,-122.98 329.1,-134.82 453.88,-118.02 610.02,-97.01 648.18,-84.8 804.88,-68.53 1043.25,-43.78 1104.01,-51.77 1342.88,-32.53 1390.74,-28.67 1446.46,-23.21 1478.5,-19.97"/>
<polygon fill="red" stroke="red" stroke-width="0.11" points="1479.21,-23.42 1488.8,-18.92 1478.5,-16.45 1479.21,-23.42"/>
</g>
<!-- 213&#45;&gt;4 -->
<g id="edge119" class="edge">
<title>213&#45;&gt;4</title>
<path fill="none" stroke="red" stroke-width="0.39" d="M122.61,-170.38C169.24,-146.11 283.02,-90.48 385.88,-68.53 762.62,11.87 870.14,-84.15 1251.88,-32.53 1265.4,-30.7 1280.23,-27.39 1292.39,-24.32"/>
<polygon fill="red" stroke="red" stroke-width="0.39" points="1293.51,-27.65 1302.3,-21.73 1291.74,-20.88 1293.51,-27.65"/>
</g>
<!-- 214&#45;&gt;0 -->
<g id="edge120" class="edge">
<title>214&#45;&gt;0</title>
<path fill="none" stroke="red" stroke-width="0.12" d="M1902.17,-76.75C1897.71,-73.64 1892.8,-70.67 1887.88,-68.53 1809.47,-34.31 1707.38,-22.64 1660.07,-18.9"/>
<polygon fill="red" stroke="red" stroke-width="0.12" points="1660.27,-15.41 1650.05,-18.16 1659.76,-22.39 1660.27,-15.41"/>
</g>
<!-- 214&#45;&gt;1 -->
<g id="edge121" class="edge">
<title>214&#45;&gt;1</title>
<path fill="none" stroke="green" stroke-width="0.56" d="M1902.39,-76.2C1897.91,-73.12 1892.94,-70.31 1887.88,-68.53 1743.87,-17.89 1351.89,-60.82 1201.88,-32.53 1194.77,-31.19 1187.25,-29.02 1180.39,-26.74"/>
<polygon fill="green" stroke="green" stroke-width="0.56" points="1181.54,-23.44 1170.95,-23.4 1179.2,-30.04 1181.54,-23.44"/>
</g>
<!-- 214&#45;&gt;2 -->
<g id="edge122" class="edge">
<title>214&#45;&gt;2</title>
<path fill="none" stroke="red" stroke-width="0.51" d="M1902.38,-76.23C1897.9,-73.15 1892.94,-70.33 1887.88,-68.53 1763.1,-24.09 1423.98,-51.52 1292.88,-32.53 1279.38,-30.57 1264.56,-27.25 1252.39,-24.21"/>
<polygon fill="red" stroke="red" stroke-width="0.51" points="1253.04,-20.76 1242.48,-21.65 1251.28,-27.54 1253.04,-20.76"/>
</g>
<!-- 214&#45;&gt;3 -->
<g id="edge123" class="edge">
<title>214&#45;&gt;3</title>
<path fill="none" stroke="red" stroke-width="0.19" d="M1902.28,-76.49C1897.81,-73.39 1892.87,-70.5 1887.88,-68.53 1771.59,-22.61 1732.74,-49.61 1608.88,-32.53 1582.4,-28.88 1552.18,-24.41 1531.17,-21.25"/>
<polygon fill="red" stroke="red" stroke-width="0.19" points="1531.49,-17.76 1521.08,-19.73 1530.45,-24.68 1531.49,-17.76"/>
</g>
<!-- 214&#45;&gt;4 -->
<g id="edge124" class="edge">
<title>214&#45;&gt;4</title>
<path fill="none" stroke="green" stroke-width="0.23" d="M1902.34,-76.34C1897.86,-73.25 1892.91,-70.4 1887.88,-68.53 1717.25,-5.1 1661.17,-49.06 1479.88,-32.53 1432.07,-28.16 1376.34,-22.87 1344.28,-19.8"/>
<polygon fill="green" stroke="green" stroke-width="0.23" points="1344.26,-16.28 1333.98,-18.81 1343.6,-23.25 1344.26,-16.28"/>
</g>
<!-- 215&#45;&gt;0 -->
<g id="edge125" class="edge">
<title>215&#45;&gt;0</title>
<path fill="none" stroke="red" stroke-width="0.13" d="M1833.8,-78.62C1827.88,-75 1821.28,-71.32 1814.88,-68.53 1761.99,-45.44 1695.87,-29.8 1659.99,-22.33"/>
<polygon fill="red" stroke="red" stroke-width="0.13" points="1660.37,-18.83 1649.87,-20.27 1658.98,-25.69 1660.37,-18.83"/>
</g>
<!-- 215&#45;&gt;1 -->
<g id="edge126" class="edge">
<title>215&#45;&gt;1</title>
<path fill="none" stroke="red" stroke-width="0.34" d="M1830.99,-83.65C1815.86,-78.34 1795.46,-71.92 1776.88,-68.53 1525,-22.47 1453.26,-81.25 1201.88,-32.53 1194.78,-31.15 1187.26,-28.98 1180.4,-26.69"/>
<polygon fill="red" stroke="red" stroke-width="0.34" points="1181.55,-23.39 1170.95,-23.36 1179.22,-29.99 1181.55,-23.39"/>
</g>
<!-- 215&#45;&gt;2 -->
<g id="edge127" class="edge">
<title>215&#45;&gt;2</title>
<path fill="none" stroke="green" stroke-width="0.28" d="M1830.98,-83.72C1815.84,-78.45 1795.44,-72.03 1776.88,-68.53 1564.93,-28.49 1506.14,-64.92 1292.88,-32.53 1279.39,-30.48 1264.58,-27.15 1252.4,-24.13"/>
<polygon fill="green" stroke="green" stroke-width="0.28" points="1253.04,-20.68 1242.49,-21.58 1251.31,-27.46 1253.04,-20.68"/>
</g>
<!-- 215&#45;&gt;3 -->
<g id="edge128" class="edge">
<title>215&#45;&gt;3</title>
<path fill="none" stroke="green" stroke-width="0.46" d="M1833.99,-78.15C1828.08,-74.52 1821.42,-70.95 1814.88,-68.53 1801.54,-63.57 1603.77,-32.6 1531.27,-21.35"/>
<polygon fill="green" stroke="green" stroke-width="0.46" points="1531.55,-17.85 1521.14,-19.77 1530.48,-24.77 1531.55,-17.85"/>
</g>
<!-- 215&#45;&gt;4 -->
<g id="edge129" class="edge">
<title>215&#45;&gt;4</title>
<path fill="none" stroke="red" stroke-width="0.18" d="M1830.93,-83.95C1815.77,-78.77 1795.37,-72.38 1776.88,-68.53 1734.36,-59.68 1434.96,-29.08 1344.02,-19.89"/>
<polygon fill="red" stroke="red" stroke-width="0.18" points="1344.29,-16.4 1333.99,-18.88 1343.59,-23.37 1344.29,-16.4"/>
</g>
<!-- 216&#45;&gt;0 -->
<g id="edge130" class="edge">
<title>216&#45;&gt;0</title>
<path fill="none" stroke="green" stroke-width="0.1" d="M1021.4,-179.34C1067.43,-173.55 1168.97,-157.09 1244.88,-118.02 1275.32,-102.36 1272.72,-82.67 1303.88,-68.53 1310.85,-65.37 1530.76,-32.55 1607.65,-21.15"/>
<polygon fill="green" stroke="green" stroke-width="0.1" points="1608.54,-24.55 1617.92,-19.62 1607.51,-17.63 1608.54,-24.55"/>
</g>
<!-- 216&#45;&gt;1 -->
<g id="edge131" class="edge">
<title>216&#45;&gt;1</title>
<path fill="none" stroke="red" stroke-width="0.28" d="M974.47,-172.37C960.41,-166.55 941.79,-159.27 924.88,-154.02 858.17,-133.32 815.26,-172.79 771.88,-118.02 758.22,-100.78 757.39,-85.08 771.88,-68.53 795.52,-41.53 1046.62,-23.92 1129.51,-18.81"/>
<polygon fill="red" stroke="red" stroke-width="0.28" points="1129.85,-22.29 1139.62,-18.19 1129.42,-15.3 1129.85,-22.29"/>
</g>
<!-- 216&#45;&gt;2 -->
<g id="edge132" class="edge">
<title>216&#45;&gt;2</title>
<path fill="none" stroke="red" stroke-width="0.31" d="M974.35,-172.73C960.24,-167.04 941.62,-159.78 924.88,-154.02 872.23,-135.92 838.12,-162.7 804.88,-118.02 791.75,-100.37 790.09,-84.81 804.88,-68.53 861.34,-6.41 1098.75,-49.85 1180.88,-32.53 1187.96,-31.03 1195.48,-28.82 1202.34,-26.54"/>
<polygon fill="red" stroke="red" stroke-width="0.31" points="1203.51,-29.84 1211.79,-23.23 1201.19,-23.23 1203.51,-29.84"/>
</g>
<!-- 216&#45;&gt;3 -->
<g id="edge133" class="edge">
<title>216&#45;&gt;3</title>
<path fill="none" stroke="red" stroke-width="0.32" d="M1020.72,-176C1057.84,-166.23 1131.28,-145.21 1189.88,-118.02 1228.16,-100.27 1231.74,-84.26 1270.88,-68.53 1342.92,-39.58 1434.33,-25.59 1478.55,-20.14"/>
<polygon fill="red" stroke="red" stroke-width="0.32" points="1479.22,-23.58 1488.73,-18.93 1478.39,-16.63 1479.22,-23.58"/>
</g>
<!-- 216&#45;&gt;4 -->
<g id="edge134" class="edge">
<title>216&#45;&gt;4</title>
<path fill="none" stroke="green" stroke-width="0.12" d="M993.52,-158.43C991.29,-132.61 992.26,-91.81 1015.88,-68.53 1053.67,-31.29 1199.78,-42.51 1251.88,-32.53 1265.28,-29.96 1280.09,-26.58 1292.28,-23.66"/>
<polygon fill="green" stroke="green" stroke-width="0.12" points="1293.33,-27.01 1302.22,-21.24 1291.67,-20.21 1293.33,-27.01"/>
</g>
<!-- 216&#45;&gt;207 -->
<g id="edge179" class="edge">
<title>216&#45;&gt;207</title>
<path fill="none" stroke="green" stroke-width="0.54" d="M1021.57,-179.64C1074.17,-173.96 1200.5,-157.08 1298.88,-118.02 1302.33,-116.66 1305.82,-115 1309.21,-113.2"/>
<polygon fill="green" stroke="green" stroke-width="0.54" points="1310.98,-116.22 1317.92,-108.21 1307.5,-110.14 1310.98,-116.22"/>
</g>
<!-- 217&#45;&gt;0 -->
<g id="edge135" class="edge">
<title>217&#45;&gt;0</title>
<path fill="none" stroke="green" stroke-width="0.63" d="M929.74,-86.09C951.9,-80.6 985.9,-72.79 1015.88,-68.53 1242.61,-36.28 1302.21,-57.17 1529.88,-32.53 1556.46,-29.65 1586.67,-25.07 1607.65,-21.68"/>
<polygon fill="green" stroke="green" stroke-width="0.63" points="1608.42,-25.1 1617.72,-20.02 1607.28,-18.19 1608.42,-25.1"/>
</g>
<!-- 217&#45;&gt;1 -->
<g id="edge136" class="edge">
<title>217&#45;&gt;1</title>
<path fill="none" stroke="green" stroke-width="0.11" d="M925.9,-78.47C931.82,-74.84 938.44,-71.2 944.88,-68.53 1008.67,-42.11 1089.17,-27.25 1129.83,-20.94"/>
<polygon fill="green" stroke="green" stroke-width="0.11" points="1130.37,-24.4 1139.74,-19.45 1129.33,-17.47 1130.37,-24.4"/>
</g>
<!-- 217&#45;&gt;2 -->
<g id="edge137" class="edge">
<title>217&#45;&gt;2</title>
<path fill="none" stroke="green" stroke-width="0.48" d="M925.76,-78.1C931.67,-74.47 938.33,-70.91 944.88,-68.53 1044.58,-32.23 1077.72,-57.32 1180.88,-32.53 1187.92,-30.84 1195.42,-28.56 1202.28,-26.28"/>
<polygon fill="green" stroke="green" stroke-width="0.48" points="1203.43,-29.58 1211.74,-23.01 1201.14,-22.97 1203.43,-29.58"/>
</g>
<!-- 217&#45;&gt;3 -->
<g id="edge138" class="edge">
<title>217&#45;&gt;3</title>
<path fill="none" stroke="red" stroke-width="0.12" stroke-dasharray="1,5" d="M929.78,-86.34C951.96,-81.01 985.98,-73.31 1015.88,-68.53 1061.8,-61.19 1383.75,-29.21 1478.63,-19.85"/>
<polygon fill="red" stroke="red" stroke-width="0.12" points="1479.19,-23.31 1488.8,-18.84 1478.51,-16.34 1479.19,-23.31"/>
</g>
<!-- 217&#45;&gt;4 -->
<g id="edge139" class="edge">
<title>217&#45;&gt;4</title>
<path fill="none" stroke="red" stroke-width="1.1" d="M925.71,-77.95C931.62,-74.32 938.29,-70.8 944.88,-68.53 1074.77,-23.77 1116.53,-56.04 1251.88,-32.53 1265.33,-30.19 1280.14,-26.84 1292.32,-23.87"/>
<polygon fill="red" stroke="red" stroke-width="1.1" points="1293.39,-27.21 1302.25,-21.39 1291.7,-20.42 1293.39,-27.21"/>
</g>
<!-- 218&#45;&gt;0 -->
<g id="edge140" class="edge">
<title>218&#45;&gt;0</title>
<path fill="none" stroke="green" stroke-width="0.3" d="M857.38,-76.21C861.86,-73.13 866.82,-70.31 871.88,-68.53 1009.98,-19.8 1384.18,-47.17 1529.88,-32.53 1556.48,-29.85 1586.69,-25.24 1607.67,-21.79"/>
<polygon fill="green" stroke="green" stroke-width="0.3" points="1608.44,-25.21 1617.73,-20.1 1607.29,-18.3 1608.44,-25.21"/>
</g>
<!-- 218&#45;&gt;1 -->
<g id="edge141" class="edge">
<title>218&#45;&gt;1</title>
<path fill="none" stroke="red" stroke-width="0.34" d="M857.56,-76.67C862.03,-73.57 866.94,-70.62 871.88,-68.53 961.05,-30.7 1077.5,-20.77 1129.18,-18.18"/>
<polygon fill="red" stroke="red" stroke-width="0.34" points="1129.64,-21.66 1139.47,-17.71 1129.32,-14.67 1129.64,-21.66"/>
</g>
<!-- 218&#45;&gt;2 -->
<g id="edge142" class="edge">
<title>218&#45;&gt;2</title>
<path fill="none" stroke="green" stroke-width="0.5" d="M857.47,-76.44C861.94,-73.35 866.88,-70.47 871.88,-68.53 1000.79,-18.54 1045.9,-62.45 1180.88,-32.53 1187.95,-30.96 1195.46,-28.72 1202.32,-26.44"/>
<polygon fill="green" stroke="green" stroke-width="0.5" points="1203.48,-29.75 1211.77,-23.15 1201.17,-23.14 1203.48,-29.75"/>
</g>
<!-- 218&#45;&gt;3 -->
<g id="edge143" class="edge">
<title>218&#45;&gt;3</title>
<path fill="none" stroke="red" stroke-width="0.16" stroke-dasharray="1,5" d="M857.41,-76.29C861.89,-73.21 866.84,-70.37 871.88,-68.53 970.49,-32.53 1238.29,-41.45 1342.88,-32.53 1390.72,-28.45 1446.45,-23.06 1478.5,-19.89"/>
<polygon fill="red" stroke="red" stroke-width="0.16" points="1479.19,-23.34 1488.8,-18.87 1478.5,-16.38 1479.19,-23.34"/>
</g>
<!-- 218&#45;&gt;4 -->
<g id="edge144" class="edge">
<title>218&#45;&gt;4</title>
<path fill="none" stroke="red" stroke-width="0.27" d="M857.44,-76.36C861.91,-73.27 866.86,-70.41 871.88,-68.53 1030.71,-8.9 1084.43,-59.7 1251.88,-32.53 1265.35,-30.34 1280.17,-27 1292.34,-24"/>
<polygon fill="red" stroke="red" stroke-width="0.27" points="1293.43,-27.34 1302.26,-21.49 1291.71,-20.55 1293.43,-27.34"/>
</g>
<!-- 219&#45;&gt;0 -->
<g id="edge145" class="edge">
<title>219&#45;&gt;0</title>
<path fill="none" stroke="green" stroke-width="0.11" d="M2197.09,-77.86C2191.18,-74.22 2184.5,-70.72 2177.88,-68.53 2079.91,-36.01 1755.36,-21.73 1660.28,-18.18"/>
<polygon fill="green" stroke="green" stroke-width="0.11" points="1660.21,-14.68 1650.09,-17.81 1659.96,-21.67 1660.21,-14.68"/>
</g>
<!-- 219&#45;&gt;1 -->
<g id="edge146" class="edge">
<title>219&#45;&gt;1</title>
<path fill="none" stroke="green" stroke-width="0.45" d="M2192.35,-89.7C2146,-84.91 2042.37,-74.58 1954.88,-68.53 1620.63,-45.4 1531.27,-93.85 1201.88,-32.53 1194.77,-31.2 1187.24,-29.05 1180.39,-26.76"/>
<polygon fill="green" stroke="green" stroke-width="0.45" points="1181.54,-23.46 1170.94,-23.42 1179.2,-30.06 1181.54,-23.46"/>
</g>
<!-- 219&#45;&gt;2 -->
<g id="edge147" class="edge">
<title>219&#45;&gt;2</title>
<path fill="none" stroke="green" stroke-width="0.22" d="M2192.84,-86.14C2169.7,-80.52 2133.64,-72.49 2101.88,-68.53 1744.74,-23.99 1649.48,-81.28 1292.88,-32.53 1279.36,-30.68 1264.54,-27.37 1252.38,-24.31"/>
<polygon fill="green" stroke="green" stroke-width="0.22" points="1253.03,-20.86 1242.47,-21.72 1251.26,-27.63 1253.03,-20.86"/>
</g>
<!-- 219&#45;&gt;3 -->
<g id="edge148" class="edge">
<title>219&#45;&gt;3</title>
<path fill="none" stroke="green" stroke-width="0.13" d="M2197.14,-77.72C2191.23,-74.08 2184.54,-70.62 2177.88,-68.53 2057.04,-30.47 1734.89,-45.74 1608.88,-32.53 1582.3,-29.74 1552.09,-25.15 1531.11,-21.72"/>
<polygon fill="green" stroke="green" stroke-width="0.13" points="1531.48,-18.24 1521.04,-20.06 1530.34,-25.14 1531.48,-18.24"/>
</g>
<!-- 219&#45;&gt;4 -->
<g id="edge149" class="edge">
<title>219&#45;&gt;4</title>
<path fill="none" stroke="green" stroke-width="0.15" d="M2194,-83.6C2178.87,-78.27 2158.47,-71.85 2139.88,-68.53 1850.69,-16.85 1772.84,-54.31 1479.88,-32.53 1432,-28.97 1376.29,-23.41 1344.25,-20.07"/>
<polygon fill="green" stroke="green" stroke-width="0.15" points="1344.27,-16.55 1333.96,-18.99 1343.54,-23.51 1344.27,-16.55"/>
</g>
<!-- 220&#45;&gt;0 -->
<g id="edge150" class="edge">
<title>220&#45;&gt;0</title>
<path fill="none" stroke="red" stroke-width="0.29" stroke-dasharray="1,5" d="M913.17,-171.93C927.19,-165.94 945.79,-158.64 962.88,-154.02 1061.49,-127.37 1098.53,-163.73 1189.88,-118.02 1218.13,-103.89 1212.4,-82.19 1240.88,-68.53 1357.59,-12.55 1401.62,-49.93 1529.88,-32.53 1556.37,-28.93 1586.59,-24.46 1607.61,-21.28"/>
<polygon fill="red" stroke="red" stroke-width="0.29" points="1608.32,-24.71 1617.69,-19.75 1607.27,-17.79 1608.32,-24.71"/>
</g>
<!-- 220&#45;&gt;1 -->
<g id="edge151" class="edge">
<title>220&#45;&gt;1</title>
<path fill="none" stroke="red" stroke-width="0.28" d="M868.37,-172.69C854.26,-166.99 835.64,-159.72 818.88,-154.02 764.96,-135.69 730.04,-163.61 695.88,-118.02 682.69,-100.42 681.21,-84.92 695.88,-68.53 725,-35.98 1036.38,-21.74 1129.64,-18.19"/>
<polygon fill="red" stroke="red" stroke-width="0.28" points="1129.8,-21.69 1139.66,-17.82 1129.54,-14.69 1129.8,-21.69"/>
</g>
<!-- 220&#45;&gt;2 -->
<g id="edge152" class="edge">
<title>220&#45;&gt;2</title>
<path fill="none" stroke="green" stroke-width="0.45" d="M867.27,-174.48C843.14,-165.38 807.01,-147.5 790.88,-118.02 780.32,-98.73 776.06,-84.78 790.88,-68.53 849.53,-4.22 1095.69,-50.35 1180.88,-32.53 1187.97,-31.05 1195.48,-28.84 1202.34,-26.56"/>
<polygon fill="green" stroke="green" stroke-width="0.45" points="1203.51,-29.85 1211.79,-23.24 1201.2,-23.25 1203.51,-29.85"/>
</g>
<!-- 220&#45;&gt;3 -->
<g id="edge153" class="edge">
<title>220&#45;&gt;3</title>
<path fill="none" stroke="red" stroke-width="0.14" d="M909.4,-166.46C915.6,-161.9 922.75,-157.26 929.88,-154.02 993.89,-124.97 1024.81,-156.12 1083.88,-118.02 1107.19,-102.99 1097.88,-82.42 1121.88,-68.53 1152.76,-50.66 1396.77,-27.09 1478.39,-19.63"/>
<polygon fill="red" stroke="red" stroke-width="0.14" points="1478.94,-23.1 1488.58,-18.71 1478.31,-16.12 1478.94,-23.1"/>
</g>
<!-- 220&#45;&gt;4 -->
<g id="edge154" class="edge">
<title>220&#45;&gt;4</title>
<path fill="none" stroke="red" stroke-width="0.53" d="M905.48,-162.37C927.71,-133 969.71,-79.89 990.88,-68.53 1094.05,-13.13 1136.72,-53.74 1251.88,-32.53 1265.3,-30.06 1280.11,-26.69 1292.3,-23.75"/>
<polygon fill="red" stroke="red" stroke-width="0.53" points="1293.36,-27.09 1302.23,-21.3 1291.68,-20.29 1293.36,-27.09"/>
</g>
<!-- 221&#45;&gt;0 -->
<g id="edge155" class="edge">
<title>221&#45;&gt;0</title>
<path fill="none" stroke="red" stroke-width="0.16" d="M1847.8,-173.11C1892.58,-155.71 1987.36,-118.79 1987.88,-118.02 2000.27,-99.85 2002.28,-85.16 1987.88,-68.53 1945.27,-19.3 1734.96,-16.32 1660.26,-16.86"/>
<polygon fill="red" stroke="red" stroke-width="0.16" points="1660.23,-13.36 1650.26,-16.96 1660.3,-20.36 1660.23,-13.36"/>
</g>
<!-- 221&#45;&gt;1 -->
<g id="edge156" class="edge">
<title>221&#45;&gt;1</title>
<path fill="none" stroke="red" stroke-width="0.44" d="M1800.57,-177.2C1770.43,-171.32 1717.49,-161.27 1671.88,-154.02 1553.62,-135.24 1506.44,-181.47 1404.88,-118.02 1382.46,-104.02 1393.77,-83.36 1371.88,-68.53 1307.96,-25.19 1276.43,-52.72 1201.88,-32.53 1194.9,-30.63 1187.42,-28.29 1180.56,-26.01"/>
<polygon fill="red" stroke="red" stroke-width="0.44" points="1181.68,-22.7 1171.09,-22.78 1179.42,-29.32 1181.68,-22.7"/>
</g>
<!-- 221&#45;&gt;2 -->
<g id="edge157" class="edge">
<title>221&#45;&gt;2</title>
<path fill="none" stroke="red" stroke-width="0.56" d="M1800.53,-177.44C1770.35,-171.79 1717.37,-161.98 1671.88,-154.02 1576.01,-137.27 1542.75,-161.91 1455.88,-118.02 1427.69,-103.78 1432.21,-84.37 1404.88,-68.53 1378.79,-53.4 1295.35,-32.91 1252.62,-23.05"/>
<polygon fill="red" stroke="red" stroke-width="0.56" points="1253.23,-19.59 1242.7,-20.78 1251.67,-26.42 1253.23,-19.59"/>
</g>
<!-- 221&#45;&gt;3 -->
<g id="edge158" class="edge">
<title>221&#45;&gt;3</title>
<path fill="none" stroke="green" stroke-width="0.59" d="M1806.82,-165.93C1778.86,-141.77 1722.59,-95.99 1667.88,-68.53 1622.15,-45.57 1564.04,-30.27 1531,-22.74"/>
<polygon fill="green" stroke="green" stroke-width="0.59" points="1531.33,-19.23 1520.81,-20.48 1529.81,-26.06 1531.33,-19.23"/>
</g>
<!-- 221&#45;&gt;4 -->
<g id="edge159" class="edge">
<title>221&#45;&gt;4</title>
<path fill="none" stroke="red" stroke-width="0.24" d="M1801.08,-175.8C1759.85,-164.91 1672.59,-141.33 1599.88,-118.02 1503.51,-87.14 1390.65,-44.97 1342.1,-26.53"/>
<polygon fill="red" stroke="red" stroke-width="0.24" points="1343.34,-23.25 1332.74,-22.97 1340.85,-29.8 1343.34,-23.25"/>
</g>
<!-- 222&#45;&gt;0 -->
<g id="edge160" class="edge">
<title>222&#45;&gt;0</title>
<path fill="none" stroke="red" stroke-width="0.41" d="M1950.18,-167.16C1971.67,-150.4 2003.81,-124.63 2006.88,-118.02 2016.16,-98.08 2021.34,-85.11 2006.88,-68.53 1961.64,-16.64 1738.32,-15.43 1660.6,-16.63"/>
<polygon fill="red" stroke="red" stroke-width="0.41" points="1660.17,-13.14 1650.23,-16.82 1660.29,-20.14 1660.17,-13.14"/>
</g>
<!-- 222&#45;&gt;1 -->
<g id="edge161" class="edge">
<title>222&#45;&gt;1</title>
<path fill="none" stroke="green" stroke-width="0.24" d="M1908.69,-171.55C1894.71,-165.42 1876.11,-158.11 1858.88,-154.02 1694.68,-115.08 1640.53,-172.74 1480.88,-118.02 1442.04,-104.71 1441.14,-83.43 1402.88,-68.53 1318.31,-35.59 1289.84,-54.87 1201.88,-32.53 1194.87,-30.75 1187.38,-28.44 1180.52,-26.16"/>
<polygon fill="green" stroke="green" stroke-width="0.24" points="1181.65,-22.85 1171.05,-22.91 1179.37,-29.47 1181.65,-22.85"/>
</g>
<!-- 222&#45;&gt;2 -->
<g id="edge162" class="edge">
<title>222&#45;&gt;2</title>
<path fill="none" stroke="green" stroke-width="0.12" d="M1908.63,-171.81C1894.62,-165.78 1876.02,-158.48 1858.88,-154.02 1746.41,-124.77 1712.01,-148.59 1599.88,-118.02 1544.62,-102.96 1535.75,-85 1480.88,-68.53 1399.4,-44.06 1376.12,-50.11 1292.88,-32.53 1279.53,-29.71 1264.73,-26.31 1252.53,-23.43"/>
<polygon fill="green" stroke="green" stroke-width="0.12" points="1253.12,-19.98 1242.58,-21.07 1251.5,-26.79 1253.12,-19.98"/>
</g>
<!-- 222&#45;&gt;3 -->
<g id="edge163" class="edge">
<title>222&#45;&gt;3</title>
<path fill="none" stroke="red" stroke-width="0.95" d="M1911.46,-167.15C1905.33,-162.72 1898.45,-157.99 1891.88,-154.02 1861.25,-135.54 1851.18,-135.37 1819.88,-118.02 1782.98,-97.57 1778.03,-84.26 1738.88,-68.53 1700.98,-53.29 1583.43,-31.25 1530.81,-21.82"/>
<polygon fill="red" stroke="red" stroke-width="0.95" points="1531.37,-18.36 1520.91,-20.06 1530.14,-25.26 1531.37,-18.36"/>
</g>
<!-- 222&#45;&gt;4 -->
<g id="edge164" class="edge">
<title>222&#45;&gt;4</title>
<path fill="none" stroke="red" stroke-width="0.65" d="M1912.36,-166.47C1906.17,-161.9 1899.01,-157.27 1891.88,-154.02 1828.29,-125.11 1802.67,-146.51 1738.88,-118.02 1703.76,-102.34 1703.65,-82.69 1667.88,-68.53 1608.67,-45.07 1415.67,-25.97 1344.53,-19.57"/>
<polygon fill="red" stroke="red" stroke-width="0.65" points="1344.47,-16.05 1334.2,-18.65 1343.85,-23.02 1344.47,-16.05"/>
</g>
<!-- 223&#45;&gt;0 -->
<g id="edge165" class="edge">
<title>223&#45;&gt;0</title>
<path fill="none" stroke="green" stroke-width="0.41" d="M2299.24,-158.42C2293.77,-131.78 2280.68,-89.45 2250.88,-68.53 2201.93,-34.16 1771.65,-20.8 1660.17,-17.9"/>
<polygon fill="green" stroke="green" stroke-width="0.41" points="1660.2,-14.4 1650.12,-17.64 1660.03,-21.4 1660.2,-14.4"/>
</g>
<!-- 223&#45;&gt;1 -->
<g id="edge166" class="edge">
<title>223&#45;&gt;1</title>
<path fill="none" stroke="green" stroke-width="0.7" d="M2278.49,-178.26C2242.2,-172.71 2171.83,-162.11 2111.88,-154.02 1982.3,-136.54 1947.53,-146.4 1819.88,-118.02 1750.53,-102.61 1737.57,-82.36 1667.88,-68.53 1464.13,-28.08 1405.52,-73.54 1201.88,-32.53 1194.79,-31.1 1187.27,-28.91 1180.41,-26.63"/>
<polygon fill="green" stroke="green" stroke-width="0.7" points="1181.56,-23.32 1170.96,-23.3 1179.23,-29.92 1181.56,-23.32"/>
</g>
<!-- 223&#45;&gt;2 -->
<g id="edge167" class="edge">
<title>223&#45;&gt;2</title>
<path fill="none" stroke="green" stroke-width="0.26" d="M2284.39,-166.42C2278.19,-161.85 2271.03,-157.22 2263.88,-154.02 2196.56,-123.91 2172.93,-137.82 2101.88,-118.02 2035.48,-99.52 2022.59,-81.52 1954.88,-68.53 1665.5,-13.01 1584.62,-73.88 1292.88,-32.53 1279.37,-30.61 1264.55,-27.3 1252.39,-24.25"/>
<polygon fill="green" stroke="green" stroke-width="0.26" points="1253.03,-20.8 1242.48,-21.67 1251.28,-27.57 1253.03,-20.8"/>
</g>
<!-- 223&#45;&gt;3 -->
<g id="edge168" class="edge">
<title>223&#45;&gt;3</title>
<path fill="none" stroke="red" stroke-width="0.23" d="M2283.56,-166.97C2277.44,-162.52 2270.54,-157.84 2263.88,-154.02 2229.7,-134.44 2214.56,-141.45 2182.88,-118.02 2159.46,-100.69 2165.97,-81.51 2139.88,-68.53 2033.99,-15.85 1726.48,-45.12 1608.88,-32.53 1582.31,-29.68 1552.1,-25.09 1531.11,-21.69"/>
<polygon fill="red" stroke="red" stroke-width="0.23" points="1531.48,-18.21 1521.05,-20.04 1530.35,-25.11 1531.48,-18.21"/>
</g>
<!-- 223&#45;&gt;4 -->
<g id="edge169" class="edge">
<title>223&#45;&gt;4</title>
<path fill="none" stroke="red" stroke-width="0.51" d="M2284.26,-166.69C2278.06,-162.13 2270.93,-157.45 2263.88,-154.02 2212.27,-128.93 2187.27,-150.39 2139.88,-118.02 2116.98,-102.38 2126.39,-81.5 2101.88,-68.53 2040.7,-36.13 1548.91,-37.77 1479.88,-32.53 1432.01,-28.89 1376.3,-23.35 1344.26,-20.04"/>
<polygon fill="red" stroke="red" stroke-width="0.51" points="1344.27,-16.53 1333.96,-18.97 1343.55,-23.49 1344.27,-16.53"/>
</g>
<!-- 224&#45;&gt;0 -->
<g id="edge170" class="edge">
<title>224&#45;&gt;0</title>
<path fill="none" stroke="green" stroke-width="0.25" d="M444.65,-90.64C505.79,-86.64 668.82,-76.1 804.88,-68.53 1127,-50.6 1208.8,-63.99 1529.88,-32.53 1556.49,-29.92 1586.69,-25.3 1607.67,-21.82"/>
<polygon fill="green" stroke="green" stroke-width="0.25" points="1608.45,-25.24 1617.73,-20.13 1607.29,-18.34 1608.45,-25.24"/>
</g>
<!-- 224&#45;&gt;1 -->
<g id="edge171" class="edge">
<title>224&#45;&gt;1</title>
<path fill="none" stroke="red" stroke-width="0.6" d="M439.64,-77.77C445.56,-74.13 452.24,-70.66 458.88,-68.53 587.34,-27.35 1018.45,-19.03 1129.57,-17.55"/>
<polygon fill="red" stroke="red" stroke-width="0.6" points="1129.63,-21.05 1139.59,-17.43 1129.54,-14.05 1129.63,-21.05"/>
</g>
<!-- 224&#45;&gt;2 -->
<g id="edge172" class="edge">
<title>224&#45;&gt;2</title>
<path fill="none" stroke="green" stroke-width="0.16" stroke-dasharray="1,5" d="M442.77,-83.59C457.89,-78.25 478.29,-71.83 496.88,-68.53 796.61,-15.26 881.74,-88.97 1180.88,-32.53 1187.99,-31.19 1195.52,-29.02 1202.38,-26.74"/>
<polygon fill="green" stroke="green" stroke-width="0.16" points="1203.56,-30.03 1211.82,-23.4 1201.23,-23.44 1203.56,-30.03"/>
</g>
<!-- 224&#45;&gt;4 -->
<g id="edge173" class="edge">
<title>224&#45;&gt;4</title>
<path fill="none" stroke="green" stroke-width="0.17" d="M442.76,-83.56C457.89,-78.21 478.28,-71.79 496.88,-68.53 827.78,-10.56 919.12,-78.56 1251.88,-32.53 1265.4,-30.66 1280.22,-27.35 1292.39,-24.29"/>
<polygon fill="green" stroke="green" stroke-width="0.17" points="1293.5,-27.61 1302.3,-21.7 1291.74,-20.84 1293.5,-27.61"/>
</g>
<!-- 7128&#45;&gt;223 -->
<g id="edge181" class="edge">
<title>7128&#45;&gt;223</title>
<path fill="none" stroke="red" stroke-width="0.56" d="M2398.41,-258.48C2379.02,-243.36 2350.94,-221.48 2330.24,-205.34"/>
<polygon fill="red" stroke="red" stroke-width="0.56" points="2332.19,-202.42 2322.15,-199.03 2327.88,-207.94 2332.19,-202.42"/>
</g>
<!-- 3184&#45;&gt;219 -->
<g id="edge178" class="edge">
<title>3184&#45;&gt;219</title>
<path fill="none" stroke="green" stroke-width="0.11" d="M2466,-165.18C2459.71,-161.1 2452.73,-157.05 2445.88,-154.02 2380.16,-124.98 2297.37,-107.73 2251.5,-99.72"/>
<polygon fill="green" stroke="green" stroke-width="0.11" points="2251.92,-96.24 2241.47,-98.02 2250.75,-103.15 2251.92,-96.24"/>
</g>
</g>
</svg>
